<svg width="134" height="134" viewBox="0 0 134 134" fill="none" xmlns="http://www.w3.org/2000/svg">
<path d="M74.6597 99.3958H70.6545C69.1834 99.3958 67.9869 100.593 67.9869 102.064V114.132C67.9869 115.603 69.1834 116.8 70.6545 116.8H74.6597C78.3433 116.8 81.3398 113.805 81.3398 110.124V106.071C81.3398 102.391 78.3433 99.3958 74.6597 99.3958V99.3958ZM77.3843 110.124C77.3843 111.624 76.1618 112.844 74.6597 112.844H71.9423V103.352H74.6597C76.1618 103.352 77.3843 104.572 77.3843 106.072V110.124Z" fill="#FFFAFA"/>
<path d="M61.257 99.3958H54.641C53.5485 99.3958 52.6631 100.281 52.6631 101.374C52.6631 102.466 53.5485 103.351 54.641 103.351H60.792V106.12H54.641C53.5485 106.12 52.6631 107.005 52.6631 108.098C52.6631 109.19 53.5485 110.076 54.641 110.076H60.792V112.844H54.641C53.5485 112.844 52.6631 113.729 52.6631 114.822C52.6631 115.914 53.5485 116.8 54.641 116.8H61.257C63.1817 116.8 64.748 115.233 64.748 113.308V102.888C64.7478 100.962 63.1817 99.3958 61.257 99.3958V99.3958Z" fill="#FFFAFA"/>
<path d="M133.881 112.499L130.551 100.81C130.251 99.759 129.157 99.1499 128.106 99.4495C127.056 99.7488 126.447 100.843 126.746 101.894L129.095 110.138L105.469 96.9766C105.477 96.6898 105.475 81.966 105.475 81.966C105.475 80.8736 104.589 79.9882 103.497 79.9882C102.405 79.9882 101.519 80.8736 101.519 81.966C101.519 81.966 101.526 97.0912 101.497 97.34C101.419 97.3978 91.7977 102.77 91.7977 102.77C89.4789 91.9522 80.2492 83.6702 68.9754 82.796V77.4135L101.519 59.291V72.8967C101.519 73.9891 102.405 74.8746 103.497 74.8746C104.589 74.8746 105.475 73.9891 105.475 72.8967V55.5224C105.446 54.5336 104.927 53.7224 103.918 53.0892L68.9756 33.631V6.78125L75.033 12.8428C75.4195 13.2293 75.9255 13.4227 76.4321 13.4227C76.9382 13.4227 77.4439 13.2295 77.8304 12.8439C78.6028 12.0717 78.6033 10.8194 77.8312 10.0467L69.2509 1.4607C68.6666 0.864901 67.8468 0.523438 66.9978 0.523438C66.1484 0.523438 65.3512 0.853388 64.7533 1.45206L56.1643 10.0465C55.3922 10.8192 55.3925 12.0714 56.1651 12.8436C56.9381 13.616 58.1901 13.6155 58.9623 12.8428L65.0199 6.78125V33.6308L51.4241 41.1995C50.4699 41.7306 50.1268 42.9353 50.658 43.8896C51.1894 44.8441 52.3941 45.1869 53.3481 44.6557L66.9978 37.0572L100.157 55.5221L66.998 73.987L33.8397 55.5187L46.4262 48.46C47.3789 47.9257 47.7183 46.7202 47.1837 45.7675C46.6494 44.8145 45.4442 44.4754 44.4913 45.0097L30.0846 53.0892C29.0924 53.6418 28.5249 54.5315 28.527 55.5294C28.527 55.5336 28.5278 55.5375 28.5278 55.5415C28.5278 55.5415 28.5246 96.6961 28.5327 96.9768L4.90634 110.135L7.24949 101.892C7.5483 100.842 6.93864 99.7478 5.88782 99.449C4.83753 99.1502 3.74327 99.7598 3.44446 100.811L0.118787 112.51C-0.107547 113.322 -0.00811691 114.174 0.398761 114.906C0.808517 115.644 1.50714 116.197 2.30494 116.42L13.9869 119.752C14.1682 119.804 14.3509 119.828 14.5306 119.828C15.3918 119.828 16.1838 119.262 16.4316 118.393C16.7312 117.342 16.1226 116.248 15.0723 115.948L6.82377 113.595L30.2275 100.561C30.4787 100.745 41.6591 106.997 41.6591 106.997C41.6434 107.362 41.6342 107.729 41.6342 108.098C41.6342 122.092 53.0124 133.477 66.9983 133.477C80.9842 133.477 92.3621 122.092 92.3621 108.098C92.3621 107.729 92.3529 107.363 92.3372 106.998C92.3372 106.998 103.526 100.744 103.775 100.561L127.176 113.597L118.932 115.948C117.881 116.248 117.272 117.342 117.572 118.393C117.82 119.262 118.612 119.829 119.473 119.829C119.653 119.829 119.836 119.804 120.017 119.752L131.7 116.42C132.498 116.191 133.19 115.64 133.598 114.906C134.007 114.168 134.109 113.317 133.881 112.499V112.499ZM33.0207 97.6582C32.7347 97.4983 32.5829 97.3986 32.5037 97.3405C32.4754 97.0933 32.4835 59.2916 32.4835 59.2916L65.0199 77.4135V82.796C53.7464 83.6702 44.5169 91.9517 42.1976 102.769L33.0207 97.6582ZM66.9978 129.521C55.1933 129.521 45.5897 119.91 45.5897 108.098C45.5897 96.2853 55.1933 86.6748 66.9978 86.6748C78.8025 86.6748 88.4061 96.2853 88.4061 108.098C88.4061 119.91 78.8025 129.521 66.9978 129.521Z" fill="#FFFAFA"/>
</svg>
