<svg width="134" height="134" viewBox="0 0 134 134" fill="none" xmlns="http://www.w3.org/2000/svg">
<path d="M11.0759 11.0759C10.8867 11.2761 10.7374 11.5106 10.6362 11.7669C10.5257 12.0176 10.4687 12.2885 10.4687 12.5625C10.4687 12.8365 10.5257 13.1074 10.6362 13.3581C10.7323 13.6169 10.8822 13.8524 11.0759 14.0491C11.4728 14.4383 12.0066 14.6564 12.5625 14.6564C13.1184 14.6564 13.6522 14.4383 14.0491 14.0491C14.4383 13.6522 14.6564 13.1184 14.6564 12.5625C14.6564 12.0066 14.4383 11.4728 14.0491 11.0759C13.6442 10.7023 13.1134 10.4949 12.5625 10.4949C12.0116 10.4949 11.4808 10.7023 11.0759 11.0759V11.0759Z" fill="white"/>
<path d="M18.0481 10.6363C17.7893 10.7324 17.5538 10.8822 17.3572 11.0759C16.9679 11.4728 16.7499 12.0066 16.7499 12.5625C16.7499 13.1184 16.9679 13.6522 17.3572 14.0491C17.65 14.3443 18.0242 14.5457 18.432 14.6275C18.8397 14.7093 19.2626 14.6679 19.6467 14.5084C20.0308 14.3489 20.3586 14.0787 20.5885 13.7321C20.8184 13.3855 20.9399 12.9784 20.9375 12.5625C20.9294 12.0082 20.7126 11.4774 20.3303 11.0759C20.0334 10.7894 19.6597 10.5953 19.2545 10.5173C18.8493 10.4392 18.4302 10.4806 18.0481 10.6363V10.6363Z" fill="white"/>
<path d="M24.3294 10.6363C24.0731 10.7374 23.8386 10.8867 23.6384 11.076C23.2492 11.4728 23.0311 12.0066 23.0311 12.5625C23.0311 13.1184 23.2492 13.6522 23.6384 14.0491C23.8421 14.2339 24.0757 14.3826 24.3294 14.4888C24.5811 14.5961 24.8514 14.653 25.125 14.6563C25.4007 14.6591 25.6743 14.6068 25.9295 14.5026C26.1848 14.3984 26.4168 14.2442 26.6117 14.0493C26.8067 13.8543 26.9608 13.6223 27.0651 13.3671C27.1693 13.1118 27.2215 12.8382 27.2187 12.5625C27.2106 12.0082 26.9938 11.4774 26.6116 11.076C26.3119 10.7939 25.9383 10.6029 25.5343 10.525C25.1302 10.4472 24.7123 10.4858 24.3294 10.6363V10.6363Z" fill="white"/>
<path d="M60.7188 39.7812H31.4062V43.9688H60.7188V39.7812Z" fill="white"/>
<path d="M60.7188 52.3438H31.4062V56.5312H60.7188V52.3438Z" fill="white"/>
<path d="M71.1875 64.9062H31.4062V69.0938H71.1875V64.9062Z" fill="white"/>
<path d="M58.625 77.4688H31.4062V81.6562H58.625V77.4688Z" fill="white"/>
<path d="M48.1562 90.0312H31.4062V94.2188H48.1562V90.0312Z" fill="white"/>
<path d="M43.9688 102.594H31.4062V106.781H43.9688V102.594Z" fill="white"/>
<path d="M121.796 29.3125C120.742 29.3095 119.699 29.5155 118.726 29.9188C117.753 30.3221 116.87 30.9145 116.128 31.6617L108.875 38.9144V10.4688C108.875 8.80286 108.213 7.2052 107.035 6.02724C105.857 4.84927 104.26 4.1875 102.594 4.1875H10.4688C8.80286 4.1875 7.2052 4.84927 6.02724 6.02724C4.84927 7.2052 4.1875 8.80286 4.1875 10.4688V123.531C4.1875 125.197 4.84927 126.795 6.02724 127.973C7.2052 129.151 8.80286 129.812 10.4688 129.812H102.594C104.26 129.812 105.857 129.151 107.035 127.973C108.213 126.795 108.875 125.197 108.875 123.531V61.5856L127.463 42.9972C128.585 41.8765 129.349 40.4481 129.659 38.8929C129.969 37.3377 129.81 35.7256 129.203 34.2605C128.597 32.7954 127.569 31.5433 126.25 30.6625C124.932 29.7818 123.381 29.3119 121.796 29.3125V29.3125ZM8.375 10.4688C8.375 9.91345 8.59559 9.3809 8.98825 8.98825C9.3809 8.59559 9.91345 8.375 10.4688 8.375H102.594C103.149 8.375 103.682 8.59559 104.074 8.98825C104.467 9.3809 104.688 9.91345 104.688 10.4688V16.75H8.375V10.4688ZM104.688 123.531C104.688 124.087 104.467 124.619 104.074 125.012C103.682 125.404 103.149 125.625 102.594 125.625H10.4688C9.91345 125.625 9.3809 125.404 8.98825 125.012C8.59559 124.619 8.375 124.087 8.375 123.531V20.9375H104.688V43.1019L92.125 55.6644V49.3832L69.9606 27.2188H20.9375V119.344H92.125V78.3356L104.688 65.7731V123.531ZM54.7013 93.0881L49.0335 110.091L66.0369 104.424L72.0543 98.4062L87.9375 82.5231V115.156H25.125V31.4062H67V52.3438H87.9375V59.8519L60.7188 87.0707L54.7013 93.0881ZM60.7188 92.9918L66.1332 98.4062L63.7756 100.764L55.654 103.471L58.3612 95.3494L60.7188 92.9918ZM71.1875 34.3668L84.9769 48.1562H71.1875V34.3668ZM69.0938 95.4457L63.6793 90.0312L113.062 40.6481L118.477 46.0625L69.0938 95.4457ZM124.503 40.0367L121.438 43.1019L116.023 37.6875L119.088 34.6222C119.441 34.2541 119.864 33.9601 120.331 33.7574C120.799 33.5548 121.303 33.4475 121.813 33.4421C122.322 33.4366 122.828 33.533 123.3 33.7255C123.772 33.9181 124.201 34.203 124.562 34.5635C124.922 34.924 125.207 35.3528 125.399 35.8249C125.592 36.2969 125.688 36.8027 125.683 37.3124C125.677 37.8222 125.57 38.3258 125.368 38.7936C125.165 39.2614 124.871 39.684 124.503 40.0367V40.0367Z" fill="white"/>
</svg>
