<svg width="140" height="140" viewBox="0 0 140 140" fill="none" xmlns="http://www.w3.org/2000/svg">
<path d="M34.3254 101.918C34.1735 101.764 33.9926 101.641 33.793 101.557C33.5934 101.473 33.3791 101.429 33.1626 101.428C32.946 101.428 32.7314 101.47 32.5311 101.552C32.3309 101.635 32.149 101.756 31.9958 101.909C31.8427 102.062 31.7214 102.244 31.639 102.445C31.5565 102.645 31.5145 102.859 31.5155 103.076C31.5164 103.293 31.5601 103.507 31.6443 103.706C31.7284 103.906 31.8512 104.087 32.0056 104.239L36.0582 108.291C36.2101 108.446 36.3911 108.568 36.5907 108.653C36.7903 108.737 37.0045 108.78 37.2211 108.781C37.4377 108.782 37.6523 108.74 37.8525 108.658C38.0528 108.575 38.2347 108.454 38.3878 108.301C38.5409 108.147 38.6622 107.965 38.7447 107.765C38.8271 107.565 38.8691 107.35 38.8682 107.134C38.8673 106.917 38.8235 106.703 38.7394 106.503C38.6553 106.304 38.5324 106.123 38.378 105.971L34.3254 101.918Z" fill="white"/>
<path d="M35.1846 66.0898C35.4937 66.3906 35.9087 66.5576 36.34 66.5546C36.7712 66.5517 37.184 66.379 37.4889 66.074C37.7939 65.7691 37.9664 65.3563 37.9693 64.9251C37.9722 64.4938 37.8052 64.0787 37.5044 63.7697L20.268 46.5333L25.9178 40.9461L30.5834 45.6118L51.8629 66.8913L18.1754 100.579C17.7691 100.985 17.4468 101.467 17.227 101.998C17.0071 102.529 16.8939 103.098 16.8939 103.672C16.8939 104.247 17.0071 104.816 17.227 105.347C17.4468 105.878 17.7691 106.36 18.1754 106.766L33.5289 122.12C34.3501 122.939 35.4626 123.399 36.6225 123.399C37.7823 123.399 38.8948 122.939 39.716 122.12L73.4035 88.4321L97.6897 112.718C97.7596 112.787 97.8355 112.849 97.9166 112.904C97.9388 112.919 97.9612 112.934 97.9842 112.948C98.0546 112.992 98.1282 113.031 98.2046 113.064C98.2163 113.069 98.2275 113.076 98.2396 113.081C98.3108 113.109 98.3838 113.133 98.4583 113.151L115.986 117.47C116.26 117.537 116.547 117.533 116.819 117.457C117.091 117.381 117.339 117.236 117.538 117.037C117.738 116.837 117.883 116.589 117.958 116.317C118.034 116.045 118.039 115.758 117.971 115.484L113.652 97.9568C113.634 97.8823 113.611 97.8092 113.582 97.738C113.577 97.726 113.57 97.7148 113.565 97.7027C113.532 97.6265 113.493 97.553 113.449 97.4826C113.435 97.4597 113.42 97.4372 113.405 97.4148C113.35 97.3338 113.288 97.2578 113.219 97.1879L88.9334 72.902L122.418 39.4198C122.824 39.0136 123.147 38.5313 123.366 38.0004C123.586 37.4696 123.699 36.9007 123.699 36.3262C123.699 35.7516 123.586 35.1827 123.366 34.6519C123.147 34.121 122.824 33.6387 122.418 33.2325L107.064 17.8787C106.243 17.0595 105.131 16.5995 103.971 16.5995C102.811 16.5995 101.699 17.0595 100.877 17.8787L92.076 26.6798L67.3936 51.3625L40.3132 24.2812C40.0055 23.9736 39.5882 23.8007 39.1531 23.8007C38.718 23.8007 38.3007 23.9736 37.9931 24.2812L37.1902 25.084L34.9683 22.8249C34.2064 22.0455 33.2961 21.4268 32.291 21.0052C31.286 20.5837 30.2066 20.3678 29.1167 20.3705H29.1107C27.4861 20.3706 25.8979 20.8525 24.5471 21.7551C23.1963 22.6578 22.1435 23.9408 21.5218 25.4418C20.9001 26.9428 20.7375 28.5944 21.0545 30.1879C21.3715 31.7813 22.1538 33.245 23.3026 34.3938L25.5774 36.6679L16.7891 45.3603C16.6353 45.5123 16.5131 45.6932 16.4296 45.8926C16.346 46.092 16.3026 46.306 16.302 46.5222C16.3014 46.7384 16.3435 46.9527 16.426 47.1525C16.5085 47.3524 16.6296 47.534 16.7825 47.6869L35.1846 66.0898ZM109.74 98.3494L98.8507 109.238L34.064 44.4522L44.9531 33.5628L109.74 98.3494ZM37.3967 119.801C37.1913 120.006 36.913 120.121 36.623 120.121C36.333 120.121 36.0547 120.006 35.8493 119.801L20.4958 104.447C20.3942 104.346 20.3137 104.225 20.2587 104.093C20.2037 103.96 20.1754 103.818 20.1754 103.674C20.1754 103.53 20.2037 103.388 20.2587 103.255C20.3137 103.123 20.3942 103.002 20.4958 102.901L43.4555 79.9408L50.7836 87.2689C50.9356 87.4233 51.1165 87.5461 51.3161 87.6301C51.5157 87.7142 51.73 87.7579 51.9465 87.7588C52.1631 87.7596 52.3777 87.7176 52.5779 87.6351C52.7782 87.5526 52.9601 87.4313 53.1132 87.2781C53.2664 87.125 53.3877 86.943 53.4701 86.7427C53.5526 86.5425 53.5945 86.3279 53.5936 86.1113C53.5927 85.8947 53.5489 85.6805 53.4648 85.4809C53.3807 85.2813 53.2579 85.1004 53.1035 84.9485L45.7754 77.6204L54.1838 69.2122L71.0845 86.1125L37.3967 119.801ZM102.068 110.662L111.163 101.566L114.137 113.635L102.068 110.662ZM76.6424 46.754L83.9705 54.0821C84.1224 54.2364 84.3034 54.3592 84.503 54.4433C84.7025 54.5274 84.9168 54.5711 85.1334 54.5719C85.3499 54.5728 85.5645 54.5308 85.7648 54.4483C85.965 54.3658 86.147 54.2445 86.3001 54.0913C86.4532 53.9381 86.5745 53.7562 86.6569 53.5559C86.7394 53.3556 86.7814 53.141 86.7805 52.9245C86.7796 52.7079 86.7358 52.4936 86.6517 52.2941C86.5675 52.0945 86.4447 51.9136 86.2903 51.7617L78.9622 44.4336L93.2356 30.1601L97.5726 34.4971C97.7242 34.6529 97.9052 34.7769 98.1052 34.8621C98.3051 34.9473 98.5199 34.9919 98.7373 34.9934C98.9546 34.9949 99.17 34.9531 99.3711 34.8706C99.5721 34.7881 99.7548 34.6665 99.9085 34.5128C100.062 34.3592 100.184 34.1765 100.266 33.9754C100.349 33.7743 100.39 33.5589 100.389 33.3416C100.387 33.1243 100.343 32.9094 100.258 32.7095C100.172 32.5096 100.048 32.3286 99.8925 32.177L95.5555 27.8406L103.197 20.1991C103.402 19.9943 103.681 19.8794 103.971 19.8794C104.261 19.8794 104.539 19.9943 104.744 20.1991L120.098 35.5526C120.303 35.7579 120.418 36.0361 120.418 36.326C120.418 36.616 120.303 36.8941 120.098 37.0994L86.6143 70.5832L69.7137 53.6826L76.6424 46.754ZM42.6333 31.2427L31.7439 42.132L28.2636 38.6517L39.153 27.7624L42.6333 31.2427ZM25.6236 32.0742C24.9336 31.3843 24.4637 30.5052 24.2733 29.5483C24.083 28.5913 24.1806 27.5993 24.554 26.6979C24.9274 25.7964 25.5597 25.0259 26.371 24.4838C27.1823 23.9417 28.1361 23.6523 29.1118 23.6523H29.1154C29.7698 23.6508 30.4179 23.7805 31.0214 24.0337C31.6249 24.2868 32.1716 24.6584 32.629 25.1264L34.8712 27.4047L28.2188 34.0558L27.9098 34.3612L25.6236 32.0742Z" fill="white"/>
</svg>
