<svg width="134" height="134" viewBox="0 0 134 134" fill="none" xmlns="http://www.w3.org/2000/svg">
<path d="M12.6248 52.3436H12.6044C12.026 52.3436 11.5677 52.812 11.5677 53.3907C11.5677 53.9691 12.0472 54.4375 12.6248 54.4375C13.2035 54.4375 13.6719 53.9691 13.6719 53.3907C13.6719 52.812 13.2035 52.3436 12.6248 52.3436Z" fill="white"/>
<path d="M16.8121 52.3436H16.7917C16.2131 52.3436 15.7551 52.812 15.7551 53.3907C15.7551 53.9691 16.2345 54.4375 16.8121 54.4375C17.3908 54.4375 17.859 53.9691 17.859 53.3907C17.8592 52.812 17.3911 52.3436 16.8121 52.3436Z" fill="white"/>
<path d="M20.9997 52.3436H20.9793C20.4009 52.3436 19.9427 52.812 19.9427 53.3907C19.9427 53.9691 20.4223 54.4375 21 54.4375C21.5784 54.4375 22.0468 53.9691 22.0465 53.3907C22.0463 52.812 21.5778 52.3436 20.9997 52.3436Z" fill="white"/>
<path d="M115.156 50.2499H10.4688C8.73703 50.2499 7.32834 51.6589 7.32834 53.3907V55.4846C7.32834 56.063 7.79651 56.5314 8.37517 56.5314H117.25C117.829 56.5314 118.297 56.063 118.297 55.4846V53.3907C118.297 51.6586 116.888 50.2499 115.156 50.2499ZM116.203 54.4375H9.422V53.3907C9.422 52.8139 9.89121 52.3436 10.4688 52.3436H115.156C115.725 52.3436 116.203 52.8222 116.203 53.3907V54.4375V54.4375Z" fill="white"/>
<path d="M117.25 54.4375C116.671 54.4375 116.203 54.9059 116.203 55.4846V91.0781C116.203 91.6568 116.671 92.125 117.25 92.125C117.828 92.125 118.297 91.6568 118.297 91.0784V55.4846C118.297 54.9059 117.829 54.4375 117.25 54.4375Z" fill="white"/>
<path d="M8.37517 54.4375C7.79651 54.4375 7.32834 54.9059 7.32834 55.4846V122.484C7.32834 123.063 7.79651 123.531 8.37517 123.531C8.95357 123.531 9.422 123.063 9.422 122.485V55.4846C9.422 54.9059 8.95357 54.4375 8.37517 54.4375Z" fill="white"/>
<path d="M87.9374 121.437H8.37517C7.79651 121.437 7.32834 121.906 7.32834 122.484C7.32834 123.063 7.79651 123.531 8.37517 123.531H87.9374C88.5163 123.531 88.9845 123.063 88.9845 122.484C88.9842 121.906 88.5163 121.437 87.9374 121.437Z" fill="white"/>
<path d="M57.418 113.555L46.9495 96.8051C46.5672 96.1916 45.557 96.1916 45.1747 96.8051L34.7062 113.555C34.3995 114.044 34.5488 114.69 35.0384 114.997C35.5291 115.306 36.1764 115.156 36.4812 114.663L46.0623 99.3344L55.6435 114.663C55.842 114.982 56.1834 115.156 56.5322 115.156C56.7215 115.156 56.9137 115.105 57.0857 114.997C57.5756 114.69 57.7249 114.044 57.418 113.555Z" fill="white"/>
<path d="M38.4295 110.341L33.3402 103.042C33.1451 102.762 32.8251 102.594 32.4837 102.594C32.4826 102.594 32.4826 102.594 32.4816 102.594C32.1412 102.594 31.8212 102.76 31.6249 103.04L24.2682 113.508C23.936 113.98 24.0504 114.633 24.5228 114.966C24.7058 115.095 24.9163 115.156 25.1239 115.156C25.4533 115.156 25.7772 115.001 25.9817 114.711L32.4787 105.467L36.7121 111.539C37.0412 112.014 37.6935 112.128 38.17 111.799C38.6442 111.468 38.7597 110.816 38.4295 110.341Z" fill="white"/>
<path d="M108.875 62.8124H16.7501C16.1714 62.8124 15.7032 63.2809 15.7032 63.8595V80.6096C15.7032 81.1882 16.1714 81.6564 16.7501 81.6564H108.875C109.454 81.6564 109.922 81.1882 109.922 80.6096V63.8595C109.922 63.2809 109.454 62.8124 108.875 62.8124ZM107.828 79.5628H17.7969V64.9063H107.828V79.5628Z" fill="white"/>
<path d="M58.6251 85.8437H16.7501C16.1714 85.8437 15.7032 86.3121 15.7032 86.8905V114.109C15.7032 114.688 16.1714 115.156 16.7501 115.156H58.6251C59.2038 115.156 59.6719 114.688 59.6719 114.109V86.8905C59.6719 86.3121 59.2038 85.8437 58.6251 85.8437ZM57.5783 113.063H17.7969V87.9374H57.5783V113.063Z" fill="white"/>
<path d="M24.0781 90.0313C21.7687 90.0313 19.8906 91.9105 19.8906 94.2186C19.8906 96.527 21.7687 98.4062 24.0781 98.4062C26.3878 98.4062 28.2655 96.5273 28.2655 94.2186C28.2655 91.9105 26.3876 90.0313 24.0781 90.0313ZM24.0781 96.3126C22.9237 96.3126 21.9842 95.3739 21.9842 94.2186C21.9842 93.0634 22.924 92.125 24.0781 92.125C25.2323 92.125 26.1718 93.0634 26.1718 94.2186C26.1715 95.3739 25.2326 96.3126 24.0781 96.3126Z" fill="white"/>
<path d="M108.875 90.0313H67C66.4214 90.0313 65.9532 90.4995 65.9532 91.0781C65.9532 91.6568 66.4214 92.125 67 92.125H108.875C109.454 92.125 109.922 91.6568 109.922 91.0781C109.922 90.4995 109.454 90.0313 108.875 90.0313Z" fill="white"/>
<path d="M92.125 96.3125H67C66.4214 96.3125 65.9532 96.7807 65.9532 97.3594C65.9532 97.938 66.4214 98.4062 67 98.4062H92.125C92.7036 98.4062 93.1718 97.938 93.1718 97.3594C93.1716 96.7807 92.7036 96.3125 92.125 96.3125Z" fill="white"/>
<path d="M87.9374 102.594H67C66.4214 102.594 65.9532 103.062 65.9532 103.641C65.9532 104.22 66.4214 104.687 67 104.687H87.9374C88.5163 104.687 88.9845 104.219 88.9845 103.641C88.9845 103.062 88.5163 102.594 87.9374 102.594Z" fill="white"/>
<path d="M85.8437 108.875H67C66.4214 108.875 65.9532 109.343 65.9532 109.922C65.9532 110.501 66.4214 110.969 67 110.969H85.8437C86.4224 110.969 86.8906 110.501 86.8906 109.922C86.8906 109.343 86.4224 108.875 85.8437 108.875Z" fill="white"/>
<path d="M98.4062 69.0937H27.2186C26.64 69.0937 26.1718 69.5621 26.1718 70.1405C26.1718 70.7192 26.64 71.1873 27.2186 71.1873H98.4062C98.9848 71.1873 99.453 70.7192 99.453 70.1405C99.453 69.5621 98.9848 69.0937 98.4062 69.0937Z" fill="white"/>
<path d="M85.8437 73.2812H39.7814C39.2027 73.2812 38.7346 73.7494 38.7346 74.3281C38.7346 74.9067 39.2027 75.3749 39.7814 75.3749H85.8437C86.4224 75.3749 86.8906 74.9067 86.8906 74.3281C86.8906 73.7494 86.4224 73.2812 85.8437 73.2812Z" fill="white"/>
<path d="M31.4044 15.7035C27.2281 15.7035 24.0784 19.0752 24.0784 23.5448C24.0784 28.0492 28.2728 32.4533 31.4044 32.4533C34.5368 32.4533 38.7345 28.0489 38.7345 23.5448C38.7343 19.0752 35.5833 15.7035 31.4044 15.7035ZM31.4044 30.3594C29.7257 30.3594 26.1721 27.1348 26.1721 23.5445C26.1721 20.2137 28.372 17.7969 31.4044 17.7969C34.4386 17.7969 36.6406 20.2137 36.6409 23.5445C36.6409 27.2045 33.1291 30.3594 31.4044 30.3594Z" fill="white"/>
<path d="M40.7533 32.95C39.0694 32.2894 37.0535 31.3612 36.5382 30.9543C36.3696 30.6026 36.0096 30.3594 35.5935 30.3594C35.0149 30.3594 34.5467 30.8278 34.5467 31.4065C34.5467 32.0095 34.5467 32.762 39.9866 34.9007C40.1123 34.9499 40.2422 34.9722 40.37 34.9722C40.7871 34.9722 41.1814 34.7208 41.3443 34.3076C41.5558 33.7698 41.2914 33.1626 40.7533 32.95Z" fill="white"/>
<path d="M35.5938 27.7873C35.0151 27.7873 34.547 28.2558 34.547 28.8342V31.4065C34.547 31.9851 35.0151 32.4533 35.5938 32.4533C36.1725 32.4533 36.6406 31.9849 36.6409 31.4065V28.8342C36.6409 28.2558 36.1725 27.7873 35.5938 27.7873Z" fill="white"/>
<path d="M27.2186 30.3594C26.8028 30.3594 26.443 30.6026 26.2742 30.9543C25.7589 31.3614 23.743 32.2896 22.0591 32.95C21.5213 33.1626 21.2566 33.7698 21.4681 34.3076C21.6305 34.7208 22.0253 34.9722 22.4424 34.9722C22.5702 34.9722 22.7001 34.9497 22.8258 34.9007C28.2654 32.762 28.2654 32.0097 28.2654 31.4065C28.2654 30.8278 27.797 30.3594 27.2186 30.3594Z" fill="white"/>
<path d="M27.2186 27.7873C26.64 27.7873 26.1718 28.2558 26.1718 28.8342V31.4065C26.1718 31.9851 26.64 32.4533 27.2186 32.4533C27.7973 32.4533 28.2654 31.9849 28.2654 31.4065V28.8342C28.2654 28.2558 27.797 27.7873 27.2186 27.7873Z" fill="white"/>
<path d="M31.4062 11.5154C23.9019 11.5154 17.7966 17.6209 17.7966 25.125C17.7966 32.629 23.9022 38.7345 31.4062 38.7345C38.9102 38.7345 45.0155 32.629 45.0155 25.125C45.0155 17.6209 38.91 11.5154 31.4062 11.5154ZM31.4062 36.6406C25.0564 36.6406 19.8906 31.4738 19.8906 25.125C19.8906 18.7762 25.0564 13.6093 31.4062 13.6093C37.7561 13.6093 42.9216 18.7762 42.9216 25.125C42.9216 31.4738 37.7558 36.6406 31.4062 36.6406Z" fill="white"/>
<path d="M94.2165 15.7035C90.0394 15.7035 86.8906 19.0752 86.8906 23.5448C86.8906 28.0492 91.0863 32.4533 94.2165 32.4533C97.3492 32.4533 101.547 28.0489 101.547 23.5448C101.547 19.0752 98.396 15.7035 94.2165 15.7035ZM94.2165 30.3594C92.5379 30.3594 88.9845 27.1348 88.9845 23.5445C88.9845 20.2137 91.1845 17.7969 94.2165 17.7969C97.251 17.7969 99.453 20.2137 99.453 23.5445C99.453 27.2045 95.9402 30.3594 94.2165 30.3594Z" fill="white"/>
<path d="M103.565 32.95C101.882 32.2894 99.8662 31.3612 99.3509 30.9543C99.1812 30.6026 98.8236 30.3594 98.4065 30.3594C97.8278 30.3594 97.3596 30.8278 97.3596 31.4065C97.3596 32.0095 97.3596 32.762 102.8 34.9007C102.925 34.9499 103.056 34.9722 103.183 34.9722C103.599 34.9722 103.994 34.7208 104.158 34.3076C104.368 33.7698 104.103 33.1626 103.565 32.95Z" fill="white"/>
<path d="M98.4062 27.7873C97.8275 27.7873 97.3594 28.2558 97.3594 28.8342V31.4065C97.3594 31.9851 97.8275 32.4533 98.4062 32.4533C98.9849 32.4533 99.453 31.9849 99.453 31.4065V28.8342C99.453 28.2558 98.9849 27.7873 98.4062 27.7873Z" fill="white"/>
<path d="M90.0313 30.3594C89.6145 30.3594 89.2563 30.6026 89.0866 30.9543C88.5716 31.3614 86.5554 32.2896 84.8726 32.95C84.3347 33.1626 84.069 33.7698 84.2795 34.3076C84.4432 34.7208 84.8377 34.9722 85.2549 34.9722C85.3816 34.9722 85.5125 34.9497 85.6374 34.9007C91.0781 32.762 91.0781 32.0097 91.0781 31.4065C91.0781 30.8278 90.6097 30.3594 90.0313 30.3594Z" fill="white"/>
<path d="M90.0313 27.7873C89.4527 27.7873 88.9845 28.2558 88.9845 28.8342V31.4065C88.9845 31.9851 89.4527 32.4533 90.0313 32.4533C90.61 32.4533 91.0782 31.9849 91.0782 31.4065V28.8342C91.0782 28.2558 90.6097 27.7873 90.0313 27.7873Z" fill="white"/>
<path d="M94.2186 11.5154C86.7146 11.5154 80.6093 17.6209 80.6093 25.125C80.6093 32.629 86.7149 38.7345 94.2186 38.7345C101.723 38.7345 107.828 32.629 107.828 25.125C107.828 17.6209 101.723 11.5154 94.2186 11.5154ZM94.2186 36.6406C87.8701 36.6406 82.7032 31.4738 82.7032 25.125C82.7032 18.7762 87.8701 13.6093 94.2186 13.6093C100.567 13.6093 105.734 18.7762 105.734 25.125C105.734 31.4738 100.567 36.6406 94.2186 36.6406Z" fill="white"/>
<path d="M62.8106 4.18784C58.6343 4.18784 55.4846 7.55953 55.4846 12.0291C55.4846 16.5333 59.6793 20.9376 62.8106 20.9376C65.943 20.9376 70.1405 16.5333 70.1408 12.0291C70.1408 7.55953 66.9898 4.18784 62.8106 4.18784ZM62.8106 18.8437C61.1319 18.8437 57.5783 15.6192 57.5783 12.0288C57.5783 8.698 59.7782 6.28123 62.8106 6.28123C65.8448 6.28123 68.0468 8.698 68.0471 12.0288C68.0471 15.6888 64.5353 18.8437 62.8106 18.8437Z" fill="white"/>
<path d="M72.1587 21.4343C70.4759 20.774 68.46 19.8455 67.9445 19.4386C67.7761 19.0872 67.4161 18.8437 67 18.8437C66.4214 18.8437 65.9532 19.3121 65.9532 19.8905C65.9532 20.4938 65.9532 21.2463 71.3939 23.385C71.5188 23.434 71.6497 23.4565 71.7765 23.4565C72.1936 23.4565 72.5882 23.2052 72.7518 22.792C72.9621 22.2542 72.6963 21.647 72.1587 21.4343Z" fill="white"/>
<path d="M67 16.2717C66.4214 16.2717 65.9532 16.7398 65.9532 17.3185V19.8906C65.9532 20.4692 66.4214 20.9376 67 20.9376C67.5787 20.9376 68.0469 20.4692 68.0469 19.8906V17.3185C68.0466 16.7398 67.5787 16.2717 67 16.2717Z" fill="white"/>
<path d="M58.6251 18.8437C58.2093 18.8437 57.8493 19.087 57.6806 19.4386C57.1653 19.8458 55.1492 20.774 53.4653 21.4343C52.9275 21.647 52.6628 22.2542 52.8743 22.792C53.0369 23.2052 53.4315 23.4565 53.8486 23.4565C53.9764 23.4565 54.1063 23.434 54.2322 23.385C59.6719 21.2463 59.6719 20.4938 59.6719 19.8905C59.6719 19.3121 59.2037 18.8437 58.6251 18.8437Z" fill="white"/>
<path d="M58.6251 16.2717C58.0464 16.2717 57.5783 16.7398 57.5783 17.3185V19.8906C57.5783 20.4692 58.0464 20.9376 58.6251 20.9376C59.2038 20.9376 59.6719 20.4692 59.6719 19.8906V17.3185C59.6719 16.7398 59.2038 16.2717 58.6251 16.2717Z" fill="white"/>
<path d="M62.8124 0C55.3084 0 49.2031 6.10529 49.2031 13.6093C49.2031 21.1133 55.3084 27.2186 62.8124 27.2186C70.3164 27.2186 76.4217 21.1133 76.4217 13.6093C76.4217 6.10529 70.3164 0 62.8124 0ZM62.8124 25.125C56.4626 25.125 51.2968 19.9581 51.2968 13.6093C51.2968 7.26052 56.4628 2.09366 62.8124 2.09366C69.1612 2.09366 74.3281 7.26052 74.3281 13.6093C74.3281 19.9581 69.1612 25.125 62.8124 25.125Z" fill="white"/>
<path d="M82.4739 35.9863C82.1141 35.5362 81.4577 35.4647 81.0018 35.8226L70.5333 44.1936C70.0811 44.5555 70.0098 45.2137 70.3696 45.6657C70.5762 45.9236 70.8807 46.0584 71.1873 46.0584C71.4164 46.0584 71.6476 45.9828 71.8417 45.8296L82.3102 37.4586C82.7624 37.0965 82.8339 36.4382 82.4739 35.9863Z" fill="white"/>
<path d="M71.1873 41.875C70.6089 41.875 70.1405 42.3432 70.1405 42.9219V45.0116C70.1405 45.59 70.6089 46.0584 71.1873 46.0584C71.7663 46.0584 72.2344 45.59 72.2344 45.0116V42.9219C72.2344 42.3432 71.7663 41.875 71.1873 41.875Z" fill="white"/>
<path d="M73.2813 43.9687H71.1873C70.6089 43.9687 70.1405 44.4371 70.1405 45.0158C70.1405 45.5942 70.6089 46.0626 71.1873 46.0626H73.2813C73.8599 46.0626 74.3281 45.5942 74.3281 45.0158C74.3281 44.4371 73.8599 43.9687 73.2813 43.9687Z" fill="white"/>
<path d="M55.0903 44.1933L44.6217 35.8224C44.1729 35.4647 43.5126 35.5362 43.1507 35.986C42.7896 36.4382 42.8632 37.0965 43.3151 37.4583L53.784 45.8293C53.9762 45.9828 54.2071 46.0584 54.4362 46.0584C54.7439 46.0584 55.0487 45.9236 55.255 45.6654C55.6161 45.2135 55.5425 44.5552 55.0903 44.1933Z" fill="white"/>
<path d="M54.4375 41.875C53.8589 41.875 53.3907 42.3432 53.3907 42.9219V45.0116C53.3907 45.59 53.8589 46.0584 54.4375 46.0584C55.0162 46.0584 55.4846 45.59 55.4846 45.0116V42.9219C55.4846 42.3432 55.0162 41.875 54.4375 41.875Z" fill="white"/>
<path d="M54.4375 43.9687H52.3436C51.7649 43.9687 51.2968 44.4371 51.2968 45.0158C51.2968 45.5942 51.7649 46.0626 52.3436 46.0626H54.4375C55.0162 46.0626 55.4846 45.5942 55.4846 45.0158C55.4846 44.4371 55.0162 43.9687 54.4375 43.9687Z" fill="white"/>
<path d="M62.8124 29.3125C62.2338 29.3125 61.7656 29.781 61.7656 30.3594V42.9198C61.7656 43.4984 62.2338 43.9666 62.8124 43.9666C63.3911 43.9666 63.8595 43.4984 63.8595 42.9198V30.3594C63.8593 29.781 63.3911 29.3125 62.8124 29.3125Z" fill="white"/>
<path d="M65.0349 40.697C64.6259 40.288 63.9635 40.288 63.5545 40.697L62.0722 42.1796C61.6632 42.5886 61.6632 43.251 62.0722 43.66C62.2767 43.8645 62.5446 43.9666 62.8124 43.9666C63.0803 43.9666 63.3482 43.8645 63.5524 43.66L65.0349 42.1775C65.4439 41.7685 65.4439 41.106 65.0349 40.697Z" fill="white"/>
<path d="M63.5524 42.1796L62.0701 40.697C61.6611 40.288 60.9987 40.288 60.5897 40.697C60.1807 41.106 60.1807 41.7685 60.5897 42.1775L62.0722 43.66C62.2767 43.8645 62.5446 43.9666 62.8124 43.9666C63.0803 43.9666 63.3482 43.8645 63.5524 43.66C63.9614 43.251 63.9614 42.5886 63.5524 42.1796Z" fill="white"/>
<path d="M108.875 94.2186C99.0626 94.2186 91.0781 102.203 91.0781 112.016C91.0781 121.828 99.0626 129.813 108.875 129.813C118.687 129.813 126.672 121.828 126.672 112.016C126.672 102.203 118.688 94.2186 108.875 94.2186ZM108.875 127.719C100.215 127.719 93.1718 120.675 93.1718 112.016C93.1718 103.356 100.216 96.3126 108.875 96.3126C117.534 96.3126 124.578 103.357 124.578 112.016C124.578 120.675 117.535 127.719 108.875 127.719Z" fill="white"/>
<path d="M125.625 115.156C125.046 115.156 124.578 115.624 124.578 116.203C124.578 124.862 117.534 131.906 108.875 131.906C100.215 131.906 93.1715 124.862 93.1715 116.203C93.1715 115.624 92.7034 115.156 92.1247 115.156C91.5461 115.156 91.0779 115.624 91.0779 116.203C91.0779 126.016 99.0624 134 108.875 134C118.687 134 126.672 126.016 126.672 116.203C126.672 115.624 126.204 115.156 125.625 115.156Z" fill="white"/>
<path d="M92.125 110.969C91.5463 110.969 91.0781 111.437 91.0781 112.016V116.203C91.0781 116.782 91.5463 117.25 92.125 117.25C92.7036 117.25 93.1718 116.782 93.1718 116.203V112.016C93.1715 111.437 92.7036 110.969 92.125 110.969Z" fill="white"/>
<path d="M125.625 110.969C125.046 110.969 124.578 111.437 124.578 112.016V116.203C124.578 116.782 125.046 117.25 125.625 117.25C126.203 117.25 126.672 116.782 126.672 116.203V112.016C126.672 111.437 126.203 110.969 125.625 110.969Z" fill="white"/>
<path d="M108.875 104.687C108.296 104.687 107.828 105.156 107.828 105.734V118.297C107.828 118.875 108.296 119.344 108.875 119.344C109.454 119.344 109.922 118.875 109.922 118.297V105.734C109.922 105.156 109.454 104.687 108.875 104.687Z" fill="white"/>
<path d="M108.875 127.719C108.296 127.719 107.828 128.187 107.828 128.766V132.953C107.828 133.532 108.296 134 108.875 134C109.454 134 109.922 133.532 109.922 132.953V128.766C109.922 128.187 109.454 127.719 108.875 127.719Z" fill="white"/>
<path d="M117.25 125.478C116.671 125.478 116.203 125.946 116.203 126.525V130.712C116.203 131.291 116.671 131.759 117.25 131.759C117.828 131.759 118.297 131.291 118.297 130.712V126.525C118.297 125.946 117.829 125.478 117.25 125.478Z" fill="white"/>
<path d="M100.5 125.478C99.9212 125.478 99.453 125.946 99.453 126.525V130.712C99.453 131.291 99.9212 131.759 100.5 131.759C101.079 131.759 101.547 131.291 101.547 130.712V126.525C101.547 125.946 101.079 125.478 100.5 125.478Z" fill="white"/>
</svg>
