<svg width="134" height="134" viewBox="0 0 134 134" fill="none" xmlns="http://www.w3.org/2000/svg">
<path d="M107.569 80.3684L109.049 81.8486C109.244 82.0431 109.475 82.1973 109.729 82.3025C109.983 82.4078 110.255 82.4619 110.53 82.4619C110.805 82.4619 111.077 82.4078 111.331 82.3025C111.585 82.1973 111.816 82.0431 112.01 81.8486L126.816 67.0437C127.01 66.8493 127.164 66.6185 127.269 66.3645C127.375 66.1104 127.429 65.8381 127.429 65.5632C127.429 65.2882 127.375 65.0159 127.269 64.7619C127.164 64.5079 127.01 64.2771 126.816 64.0826L103.127 40.3945C102.933 40.2 102.702 40.0458 102.448 39.9406C102.194 39.8354 101.922 39.7812 101.647 39.7812C101.372 39.7812 101.1 39.8354 100.846 39.9406C100.592 40.0458 100.361 40.2 100.166 40.3945L76.7469 63.8136L62.1268 70.4589L33.5437 41.875C33.3493 41.6806 33.1185 41.5263 32.8644 41.4211C32.6104 41.3159 32.3381 41.2617 32.0632 41.2617C31.7882 41.2617 31.5159 41.3159 31.2619 41.4211C31.0079 41.5263 30.7771 41.6806 30.5826 41.875L6.89447 65.5632C6.70004 65.7576 6.5458 65.9884 6.44058 66.2425C6.33535 66.4965 6.28119 66.7688 6.28119 67.0437C6.28119 67.3187 6.33535 67.591 6.44058 67.845C6.5458 68.099 6.70004 68.3298 6.89447 68.5243L21.6994 83.3294C21.8938 83.5239 22.1246 83.6782 22.3787 83.7834C22.6328 83.8887 22.9051 83.9429 23.1801 83.9429C23.455 83.9429 23.7273 83.8887 23.9814 83.7834C24.2355 83.6782 24.4663 83.5239 24.6607 83.3294L26.141 81.8489L33.5435 89.2514C33.8448 89.5534 34.2315 89.7558 34.6515 89.8313C35.0714 89.9068 35.5044 89.8519 35.8921 89.6738V96.6528C35.8928 97.0169 35.9884 97.3746 36.1695 97.6905C36.1037 98.5874 36.2318 99.4879 36.5451 100.331C36.8584 101.174 37.3495 101.94 37.9851 102.576C39.0796 103.669 40.5411 104.318 42.0865 104.396C42.1657 105.942 42.8149 107.404 43.9087 108.499C45.0025 109.595 46.4633 110.246 48.0092 110.328C48.0896 111.87 48.7379 113.327 49.8292 114.42C50.9237 115.513 52.385 116.162 53.9303 116.24C54.0129 117.844 54.709 119.356 55.8746 120.461C57.0402 121.567 58.5861 122.183 60.1927 122.181C60.3094 122.181 60.4251 122.177 60.5408 122.171L66.1133 127.745C66.9711 128.603 68.0589 129.194 69.2452 129.446C70.4315 129.699 71.6657 129.604 72.7987 129.17C73.9317 128.737 74.9151 127.986 75.6302 127.006C76.3454 126.026 76.7616 124.86 76.8286 123.649C78.3718 123.564 79.8295 122.913 80.9224 121.82C82.0153 120.727 82.6666 119.269 82.7516 117.726C84.2939 117.643 85.7511 116.993 86.8435 115.9C87.9358 114.808 88.5864 113.351 88.6703 111.809C89.8812 111.742 91.0468 111.325 92.0262 110.61C93.0056 109.895 93.757 108.911 94.1897 107.778C94.6223 106.645 94.7177 105.411 94.4643 104.225C94.2109 103.039 93.6196 101.952 92.7618 101.095L92.438 100.771L100.35 87.5866L107.569 80.3684ZM101.647 44.8358L122.375 65.564L110.531 77.4081L89.8028 56.6799L101.647 44.8358ZM62.885 74.7147L77.5038 68.0697L83.8809 74.4464L79.4392 78.8878C78.2651 80.0621 76.6737 80.7235 75.0131 80.7274C73.3526 80.7313 71.7581 80.0773 70.5785 78.9085L70.5672 78.8975L70.5149 78.848C70.1194 78.4726 69.5929 78.2665 69.0477 78.2737C68.5024 78.2809 67.9816 78.5009 67.5962 78.8868L60.9342 85.5491C60.3452 86.1379 59.5465 86.4687 58.7136 86.4687C57.8808 86.4687 57.082 86.1379 56.4931 85.5491C55.9049 84.9596 55.5746 84.1609 55.5746 83.3283C55.5746 82.4956 55.9049 81.6969 56.4931 81.1075L62.885 74.7147ZM23.1799 78.8878L11.3358 67.0437L32.064 46.3156L43.9078 58.1594L23.1799 78.8878ZM35.024 84.8097L29.1031 78.8878L46.8694 61.1218L52.7913 67.0437L35.024 84.8097ZM42.4265 100.228C42.0124 100.228 41.6076 100.105 41.2633 99.8752C40.919 99.6451 40.6507 99.3181 40.4922 98.9355C40.3338 98.5529 40.2923 98.1319 40.3731 97.7258C40.4539 97.3197 40.6534 96.9466 40.9462 96.6538L43.907 93.6927C44.3015 93.3095 44.8309 93.0968 45.3809 93.1007C45.9309 93.1046 46.4572 93.3247 46.8462 93.7136C47.2352 94.1024 47.4556 94.6286 47.4597 95.1786C47.4639 95.7286 47.2514 96.2581 46.8683 96.6528L43.907 99.6136C43.7131 99.8088 43.4824 99.9637 43.2283 100.069C42.9742 100.175 42.7016 100.229 42.4265 100.228ZM48.3486 106.15C47.9345 106.15 47.5298 106.027 47.1854 105.797C46.8411 105.567 46.5728 105.24 46.4143 104.858C46.2558 104.475 46.2142 104.054 46.295 103.648C46.3757 103.242 46.5751 102.869 46.8678 102.576L49.8294 99.6146C50.0231 99.4167 50.254 99.2591 50.509 99.151C50.764 99.0429 51.0378 98.9864 51.3148 98.9849C51.5917 98.9834 51.8661 99.0368 52.1223 99.1421C52.3784 99.2474 52.6111 99.4024 52.8069 99.5982C53.0027 99.7941 53.1577 100.027 53.263 100.283C53.3682 100.539 53.4216 100.814 53.42 101.091C53.4184 101.367 53.3619 101.641 53.2538 101.896C53.1456 102.151 52.988 102.382 52.79 102.576L49.8292 105.537C49.6352 105.732 49.4045 105.886 49.1503 105.992C48.8962 106.097 48.6237 106.151 48.3486 106.15ZM54.2705 112.072C53.8564 112.072 53.4517 111.949 53.1074 111.719C52.7631 111.489 52.4948 111.162 52.3363 110.78C52.1779 110.397 52.1364 109.976 52.2172 109.57C52.298 109.164 52.4974 108.791 52.7903 108.498L55.7511 105.537C55.9451 105.34 56.176 105.184 56.4305 105.078C56.685 104.971 56.9581 104.915 57.2342 104.914C57.5102 104.914 57.7837 104.967 58.0388 105.073C58.294 105.178 58.5259 105.332 58.7211 105.528C58.9162 105.723 59.0709 105.955 59.1762 106.21C59.2814 106.465 59.3352 106.738 59.3344 107.014C59.3335 107.291 59.2781 107.564 59.1714 107.818C59.0646 108.073 58.9085 108.304 58.7122 108.498L55.7511 111.459C55.5571 111.654 55.3264 111.808 55.0723 111.914C54.8181 112.019 54.5456 112.073 54.2705 112.072ZM60.1927 117.994C59.7786 117.994 59.3739 117.871 59.0296 117.641C58.6853 117.411 58.417 117.084 58.2585 116.702C58.1001 116.319 58.0586 115.898 58.1393 115.492C58.2201 115.086 58.4194 114.713 58.7122 114.42L61.6733 111.459C61.8673 111.262 62.0982 111.106 62.3527 111C62.6072 110.893 62.8804 110.837 63.1564 110.837C63.4324 110.836 63.7059 110.889 63.961 110.995C64.2162 111.1 64.4481 111.255 64.6432 111.45C64.8384 111.645 64.993 111.877 65.0983 112.132C65.2035 112.387 65.2572 112.661 65.2564 112.937C65.2555 113.213 65.2001 113.486 65.0933 113.74C64.9865 113.995 64.8304 114.226 64.6341 114.42L61.673 117.381C61.4791 117.576 61.2484 117.731 60.9943 117.836C60.7402 117.941 60.4677 117.995 60.1927 117.994ZM89.8007 107.019C89.6065 107.213 89.376 107.367 89.1223 107.472C88.8686 107.577 88.5966 107.631 88.322 107.631C88.0473 107.631 87.7754 107.577 87.5217 107.472C87.268 107.367 87.0374 107.213 86.8433 107.019C86.4507 106.626 85.9183 106.405 85.363 106.405C84.8076 106.405 84.275 106.625 83.8822 107.018C83.4894 107.41 83.2686 107.943 83.2684 108.498C83.2682 109.053 83.4886 109.586 83.8811 109.979L83.8866 109.984C84.2791 110.377 84.4992 110.91 84.4987 111.465C84.4982 112.021 84.277 112.554 83.8839 112.946C83.6892 113.14 83.4582 113.294 83.204 113.399C82.9498 113.504 82.6774 113.558 82.4023 113.558C81.8468 113.558 81.3143 113.336 80.9219 112.943L80.9182 112.939C80.525 112.547 79.9921 112.327 79.4367 112.328C78.8814 112.328 78.3491 112.55 77.9569 112.943C77.5647 113.336 77.3448 113.869 77.3455 114.424C77.3463 114.98 77.5676 115.512 77.9608 115.904C78.1549 116.098 78.3089 116.329 78.4138 116.583C78.5188 116.836 78.5727 117.108 78.5725 117.383C78.5722 117.657 78.5178 117.929 78.4124 118.183C78.307 118.436 78.1527 118.667 77.9582 118.86C77.5653 119.253 77.0327 119.473 76.4775 119.473C75.9223 119.473 75.3897 119.253 74.9968 118.86C74.6027 118.477 74.0735 118.264 73.5235 118.267C72.9735 118.27 72.4469 118.49 72.0575 118.879C71.6682 119.267 71.4473 119.793 71.4427 120.343C71.4381 120.893 71.6501 121.423 72.0329 121.818C72.2275 122.012 72.382 122.243 72.4875 122.497C72.593 122.751 72.6475 123.023 72.6477 123.298C72.648 123.573 72.5941 123.846 72.4891 124.1C72.3841 124.354 72.23 124.585 72.0357 124.78C71.8415 124.974 71.6107 125.129 71.3567 125.234C71.1027 125.34 70.8304 125.394 70.5554 125.395C70.2804 125.395 70.008 125.341 69.7538 125.236C69.4996 125.131 69.2685 124.977 69.0739 124.783L64.633 120.341L67.5952 117.381C68.4549 116.524 69.0476 115.437 69.3014 114.25C69.5552 113.063 69.4592 111.829 69.025 110.695C68.5908 109.562 67.8371 108.579 66.8554 107.866C65.8736 107.153 64.706 106.739 63.494 106.677C63.4165 105.133 62.7689 103.673 61.6766 102.579C60.5843 101.485 59.125 100.835 57.5813 100.756C57.4979 99.2095 56.8462 97.7485 55.7512 96.6535C54.6563 95.5585 53.1954 94.9066 51.6492 94.8231C51.5847 93.6119 51.1704 92.4455 50.4564 91.465C49.7424 90.4846 48.7594 89.7323 47.6265 89.2992C46.4936 88.8661 45.2594 88.7709 44.0735 89.025C42.8876 89.2792 41.8008 89.8718 40.9449 90.7311L40.0786 91.5977V85.6771L55.7503 70.0053L58.7119 72.9672L53.5299 78.1492C52.8494 78.8298 52.3095 79.6376 51.9413 80.5268C51.573 81.4159 51.3834 82.3689 51.3834 83.3313C51.3834 84.2937 51.573 85.2466 51.9413 86.1358C52.3095 87.0249 52.8494 87.8328 53.5299 88.5133C54.2104 89.1938 55.0183 89.7336 55.9074 90.1019C56.7965 90.4702 57.7495 90.6598 58.7119 90.6598C59.6743 90.6598 60.6273 90.4702 61.5164 90.1019C62.4055 89.7336 63.2134 89.1938 63.8939 88.5133L69.076 83.3313L89.8025 104.058C90.1942 104.451 90.4139 104.983 90.4136 105.538C90.4133 106.094 90.1928 106.626 89.8007 107.019ZM89.3872 97.7193L76.4797 84.81C78.7233 84.4949 80.8024 83.455 82.4001 81.8486L86.8414 77.4075L96.0508 86.6158L89.3872 97.7193ZM80.9198 65.5629L86.8417 59.641L104.609 77.4073L98.6871 83.3294L80.9198 65.5629Z" fill="white"/>
<path d="M55.4556 48.2235L63.1643 59.7865C63.3555 60.0733 63.6145 60.3084 63.9184 60.471C64.2223 60.6336 64.5616 60.7187 64.9063 60.7187C65.2509 60.7187 65.5903 60.6336 65.8941 60.471C66.198 60.3084 66.4571 60.0733 66.6483 59.7865L74.3543 48.2269C79.797 45.7738 84.0772 41.3068 86.2958 35.7644L89.6981 39.168C89.8925 39.3625 90.1234 39.5168 90.3774 39.622C90.6315 39.7273 90.9038 39.7815 91.1788 39.7815C91.4538 39.7815 91.7261 39.7273 91.9801 39.622C92.2342 39.5168 92.465 39.3625 92.6595 39.168L104.465 27.363C105.753 26.069 106.555 24.37 106.735 22.5531C106.914 20.7362 106.461 18.9129 105.452 17.3915C104.235 15.5666 102.344 14.2997 100.193 13.8693C98.0421 13.4389 95.8085 13.8803 93.9832 15.0965L91.1828 16.9636L88.3825 15.0965C86.9594 14.146 85.2752 13.6632 83.5647 13.7154C81.4944 10.8559 78.7944 8.51064 75.6733 6.86078C72.5522 5.21093 69.0937 4.30064 65.5648 4.20025C62.0359 4.09986 58.5312 4.81204 55.3214 6.28179C52.1116 7.75154 49.2826 9.9395 47.053 12.6766C44.8234 15.4138 43.2529 18.6269 42.4628 22.0676C41.6727 25.5084 41.6842 29.0847 42.4963 32.5203C43.3084 35.9559 44.8994 39.1589 47.1465 41.8817C49.3935 44.6045 52.2365 46.7743 55.4556 48.2235ZM64.9063 54.8505L61.6887 50.0241C63.8232 50.3253 65.9894 50.3253 68.1238 50.0241L64.9063 54.8505ZM65.0209 46.0596C64.9827 46.0596 64.9445 46.0625 64.9063 46.0625C64.8681 46.0625 64.8299 46.0599 64.7916 46.0596L61.0731 37.3915C59.9776 34.8238 59.3058 32.0953 59.0841 29.3125H70.7306C70.509 32.0949 69.8372 34.8228 68.7415 37.3899L65.0209 46.0596ZM72.2051 44.5966L72.148 44.6194C71.4032 44.9285 70.6391 45.189 69.8606 45.3993L72.5888 39.0395C73.9071 35.951 74.6973 32.6629 74.9262 29.3125H79.8444L83.0065 32.4746C82.222 35.1718 80.8451 37.6598 78.9764 39.757C77.1077 41.8542 74.7943 43.5077 72.2051 44.5969V44.5966ZM80.3917 19.7134C80.9935 18.813 81.9279 18.1881 82.9899 17.9756C84.052 17.7632 85.1549 17.9806 86.0568 18.5802L90.0192 21.222C90.3632 21.4513 90.7673 21.5736 91.1806 21.5736C91.594 21.5736 91.9981 21.4513 92.342 21.222L96.3047 18.5805C97.2061 17.9795 98.3094 17.7613 99.3718 17.9738C100.434 18.1862 101.369 18.812 101.97 19.7134C102.444 20.4287 102.657 21.2859 102.573 22.1402C102.488 22.9944 102.111 23.7933 101.506 24.4016L91.1807 34.7267L80.8559 24.4016C80.2503 23.7933 79.8734 22.9944 79.7888 22.1402C79.7042 21.286 79.9171 20.4288 80.3917 19.7134ZM79.2875 15.042C78.3417 15.6536 77.5316 16.4529 76.9074 17.3904C76.1564 18.5221 75.7088 19.8277 75.6074 21.1821C75.506 22.5365 75.7543 23.8942 76.3285 25.125H74.9262C74.6971 21.7743 73.9068 18.4859 72.5885 15.3969L69.8585 9.03296C73.5399 10.0295 76.8294 12.1259 79.2875 15.042ZM64.7916 8.37788C64.8301 8.37788 64.8678 8.375 64.9063 8.375C64.9447 8.375 64.9824 8.37657 65.0204 8.37683L68.7394 17.046C69.8351 19.6137 70.5071 22.3421 70.729 25.125H59.0825C59.3041 22.3426 59.9758 19.6147 61.0716 17.0476L64.7916 8.37788ZM59.9498 9.04081L57.2238 15.3985C55.9055 18.4869 55.1153 21.7748 54.8864 25.125H46.1816C46.6072 21.3753 48.1463 17.839 50.6005 14.9722C53.0546 12.1053 56.3113 10.0394 59.9506 9.04081H59.9498ZM54.8864 29.3125C55.1155 32.6632 55.9057 35.9516 57.224 39.0406L59.9517 45.4004C59.1733 45.19 58.4093 44.9295 57.6645 44.6204L57.6075 44.5977C54.5111 43.3024 51.8181 41.2017 49.8082 38.5138C47.7983 35.8258 46.5448 32.6487 46.1779 29.3125H54.8864Z" fill="white"/>
</svg>
