<svg width="134" height="134" viewBox="0 0 134 134" fill="none" xmlns="http://www.w3.org/2000/svg">
<path d="M36.3876 95.3793L39.5461 92.2208L14.3254 67L76.8586 4.46667H113.9V13.4H109.049C108.522 11.9099 107.486 10.654 106.122 9.85429C104.759 9.05458 103.157 8.76256 101.599 9.02982C100.042 9.29709 98.6286 10.1064 97.6099 11.3148C96.5912 12.5232 96.0324 14.0528 96.0324 15.6333C96.0324 17.2138 96.5912 18.7435 97.6099 19.9518C98.6286 21.1602 100.042 21.9696 101.599 22.2368C103.157 22.5041 104.759 22.2121 106.122 21.4124C107.486 20.6127 108.522 19.3568 109.049 17.8667H113.9V41.5082L69.8875 85.5208L73.046 88.6793L117.713 44.0126C117.92 43.8052 118.084 43.559 118.197 43.288C118.309 43.017 118.367 42.7266 118.367 42.4333V31.2667H125.067C127.436 31.2667 129.708 30.3255 131.383 28.6502C133.059 26.9748 134 24.7026 134 22.3333C134 19.9641 133.059 17.6918 131.383 16.0165C129.708 14.3412 127.436 13.4 125.067 13.4H118.367V2.23333C118.367 1.64102 118.131 1.07296 117.713 0.654128C117.294 0.235297 116.726 1.48273e-09 116.133 1.48273e-09H75.9334C75.6401 -1.06852e-05 75.3497 0.0577469 75.0787 0.169976C74.8078 0.282204 74.5616 0.446706 74.3542 0.654088L9.58762 65.4208C9.38023 65.6281 9.21571 65.8743 9.10347 66.1453C8.99123 66.4163 8.93346 66.7067 8.93346 67C8.93346 67.2933 8.99123 67.5837 9.10347 67.8547C9.21571 68.1257 9.38023 68.3719 9.58762 68.5792L36.3876 95.3793ZM100.5 15.6333C100.501 15.0412 100.736 14.4736 101.155 14.0549C101.574 13.6362 102.141 13.4007 102.733 13.4V17.8667C102.141 17.866 101.574 17.6305 101.155 17.2118C100.736 16.7931 100.501 16.2254 100.5 15.6333V15.6333ZM125.067 17.8667C126.251 17.8667 127.387 18.3373 128.225 19.1749C129.063 20.0126 129.533 21.1487 129.533 22.3333C129.533 23.518 129.063 24.6541 128.225 25.4917C127.387 26.3294 126.251 26.8 125.067 26.8H118.367V17.8667H125.067Z" fill="white"/>
<path d="M60.6312 44.0676C60.9686 45.1457 61.5578 46.1281 62.35 46.9335C63.1423 47.7388 64.1148 48.3441 65.1872 48.6992C65.2171 49.7602 65.4904 50.8 65.986 51.7386C66.4815 52.6771 67.1861 53.4892 68.0453 54.1123C68.968 54.8102 70.0423 55.2806 71.181 55.4853C72.3196 55.69 73.4905 55.6232 74.5985 55.2904C75.2967 56.1571 76.1803 56.8564 77.1843 57.3368C78.1882 57.8172 79.2871 58.0666 80.4001 58.0666C81.5131 58.0666 82.612 57.8172 83.6159 57.3368C84.6199 56.8564 85.5035 56.1571 86.2017 55.2904C87.3097 55.6232 88.4806 55.69 89.6192 55.4853C90.7579 55.2806 91.8322 54.8102 92.7549 54.1123C93.6141 53.4892 94.3187 52.6771 94.8142 51.7386C95.3098 50.8 95.5831 49.7602 95.613 48.6992C96.6854 48.3441 97.6579 47.7388 98.4502 46.9335C99.2424 46.1281 99.8316 45.1457 100.169 44.0676C100.504 43.0492 100.594 41.9662 100.433 40.9063C100.272 39.8465 99.8634 38.8394 99.2407 37.9667C99.8634 37.0939 100.272 36.0869 100.433 35.027C100.594 33.9671 100.504 32.8842 100.169 31.8658C99.8316 30.7876 99.2424 29.8053 98.4502 28.9999C97.6579 28.1945 96.6854 27.5892 95.613 27.2341C95.5831 26.1732 95.3098 25.1333 94.8142 24.1948C94.3187 23.2562 93.6141 22.4441 92.7549 21.8211C91.8322 21.1231 90.7579 20.6526 89.6193 20.4479C88.4806 20.2432 87.3097 20.3101 86.2017 20.643C85.5035 19.7763 84.6199 19.077 83.6159 18.5966C82.612 18.1161 81.5131 17.8668 80.4001 17.8668C79.2871 17.8668 78.1882 18.1161 77.1843 18.5966C76.1803 19.077 75.2967 19.7763 74.5985 20.643C73.4905 20.3101 72.3196 20.2434 71.181 20.4481C70.0423 20.6528 68.968 21.1232 68.0453 21.8211C67.1861 22.4441 66.4815 23.2563 65.986 24.1948C65.4904 25.1333 65.2171 26.1732 65.1872 27.2341C64.1148 27.5892 63.1423 28.1945 62.35 28.9999C61.5578 29.8053 60.9686 30.7876 60.6312 31.8658C60.2963 32.8842 60.2059 33.9671 60.3671 35.027C60.5284 36.0869 60.9368 37.0939 61.5594 37.9667C60.9368 38.8394 60.5284 39.8465 60.3671 40.9063C60.2059 41.9662 60.2963 43.0492 60.6312 44.0676ZM65.9697 36.1038C65.4869 35.8165 65.1168 35.3729 64.9206 34.8464C64.7244 34.32 64.714 33.7423 64.891 33.2091C65.0728 32.6264 65.4462 32.1223 65.9506 31.7786C66.455 31.4349 67.0608 31.2718 67.6696 31.3158C68.0343 31.3256 68.3959 31.2458 68.7227 31.0835C69.0495 30.9212 69.3316 30.6813 69.5442 30.3848C69.7568 30.0883 69.8936 29.7442 69.9425 29.3826C69.9914 29.021 69.951 28.6529 69.8247 28.3106C69.6278 27.7944 69.6092 27.2271 69.7718 26.6991C69.9344 26.1711 70.269 25.7126 70.7222 25.3966C71.2218 25.0042 71.8382 24.79 72.4735 24.788C73.1088 24.786 73.7265 24.9964 74.2286 25.3858C74.5158 25.5991 74.8501 25.7403 75.2032 25.7974C75.5564 25.8546 75.9182 25.8261 76.258 25.7143C76.5979 25.6025 76.9059 25.4107 77.1562 25.155C77.4064 24.8993 77.5916 24.5873 77.6961 24.2451C78.1266 22.8358 79.3753 22.3333 80.4001 22.3333C81.4249 22.3333 82.6736 22.8358 83.1041 24.2451C83.2086 24.5873 83.3938 24.8993 83.644 25.155C83.8943 25.4107 84.2023 25.6025 84.5422 25.7143C84.882 25.8261 85.2438 25.8546 85.597 25.7974C85.9501 25.7403 86.2844 25.5991 86.5716 25.3858C87.0735 24.9961 87.6913 24.7855 88.3267 24.7875C88.962 24.7895 89.5785 25.0039 90.078 25.3966C90.5312 25.7126 90.8658 26.1711 91.0284 26.6991C91.191 27.2271 91.1724 27.7944 90.9755 28.3106C90.8492 28.6529 90.8088 29.021 90.8577 29.3826C90.9066 29.7442 91.0433 30.0883 91.256 30.3848C91.4686 30.6813 91.7507 30.9212 92.0775 31.0835C92.4043 31.2458 92.7659 31.3256 93.1306 31.3158C93.7392 31.2729 94.3445 31.4364 94.8487 31.7799C95.3529 32.1235 95.7265 32.627 95.9092 33.2091C96.0862 33.7423 96.0758 34.32 95.8796 34.8464C95.6834 35.3729 95.3133 35.8165 94.8305 36.1038C94.5226 36.3074 94.27 36.5841 94.0952 36.9092C93.9205 37.2343 93.829 37.5976 93.829 37.9667C93.829 38.3358 93.9205 38.6991 94.0952 39.0242C94.27 39.3493 94.5226 39.626 94.8305 39.8296C95.3133 40.1169 95.6834 40.5605 95.8796 41.0869C96.0758 41.6134 96.0862 42.191 95.9092 42.7242C95.7271 43.3068 95.3537 43.8107 94.8493 44.1544C94.345 44.498 93.7394 44.6612 93.1306 44.6175C92.7659 44.6078 92.4043 44.6875 92.0775 44.8498C91.7507 45.0121 91.4686 45.252 91.256 45.5486C91.0433 45.8451 90.9066 46.1892 90.8577 46.5508C90.8088 46.9124 90.8492 47.2804 90.9755 47.6228C91.1724 48.139 91.191 48.7062 91.0284 49.2343C90.8658 49.7623 90.5312 50.2208 90.078 50.5367C89.5784 50.9291 88.9619 51.1434 88.3267 51.1453C87.6914 51.1473 87.0736 50.9369 86.5716 50.5476C86.2844 50.3343 85.9501 50.1931 85.597 50.1359C85.2438 50.0788 84.882 50.1073 84.5422 50.2191C84.2023 50.3309 83.8943 50.5227 83.644 50.7784C83.3938 51.034 83.2086 51.3461 83.1041 51.6883C82.6736 53.0975 81.4249 53.6 80.4001 53.6C79.3753 53.6 78.1266 53.0975 77.6961 51.6883C77.5916 51.3461 77.4064 51.034 77.1562 50.7784C76.9059 50.5227 76.5979 50.3309 76.258 50.2191C75.9182 50.1073 75.5564 50.0788 75.2032 50.1359C74.8501 50.1931 74.5158 50.3343 74.2286 50.5476C73.7265 50.9368 73.1088 51.1472 72.4735 51.1452C71.8383 51.1432 71.2219 50.929 70.7222 50.5367C70.269 50.2208 69.9344 49.7623 69.7718 49.2343C69.6092 48.7062 69.6278 48.139 69.8247 47.6228C69.951 47.2804 69.9914 46.9124 69.9425 46.5508C69.8936 46.1892 69.7568 45.8451 69.5442 45.5486C69.3316 45.252 69.0495 45.0121 68.7227 44.8498C68.3959 44.6875 68.0343 44.6078 67.6696 44.6175C67.0607 44.6621 66.4547 44.4992 65.9502 44.1554C65.4456 43.8116 65.0723 43.3072 64.891 42.7242C64.714 42.191 64.7244 41.6134 64.9206 41.0869C65.1168 40.5605 65.4869 40.1169 65.9697 39.8296C66.2776 39.626 66.5302 39.3493 66.705 39.0242C66.8797 38.6991 66.9712 38.3358 66.9712 37.9667C66.9712 37.5976 66.8797 37.2343 66.705 36.9092C66.5302 36.5841 66.2776 36.3074 65.9697 36.1038V36.1038Z" fill="white"/>
<path d="M34.1544 54.2541L20.7545 67.6541L23.9129 70.8125L37.3128 57.4125L34.1544 54.2541Z" fill="white"/>
<path d="M40.8541 60.9541L27.4542 74.3541L30.6126 77.5125L44.0125 64.1125L40.8541 60.9541Z" fill="white"/>
<path d="M47.5542 67.6541L34.1542 81.0541L37.3126 84.2125L50.7126 70.8125L47.5542 67.6541Z" fill="white"/>
<path d="M54.2542 74.3541L40.8543 87.7541L44.0127 90.9125L57.4126 77.5126L54.2542 74.3541Z" fill="white"/>
<path d="M60.9541 81.0543L54.2541 87.7543L57.4125 90.9127L64.1125 84.2127L60.9541 81.0543Z" fill="white"/>
<path d="M50.7126 43.0875L47.5541 46.2459L52.9979 51.6896L56.1563 48.5312L50.7126 43.0875Z" fill="white"/>
<path d="M59.0877 51.4626L55.9293 54.621L69.8877 68.5794L73.0461 65.421L59.0877 51.4626Z" fill="white"/>
<path d="M24.0253 15.5666C26.3322 16.1407 28.4392 17.3322 30.1202 19.0133C31.8013 20.6943 32.9928 22.8013 33.5669 25.1083C33.6877 25.5914 33.9666 26.0203 34.3591 26.3268C34.7517 26.6333 35.2354 26.7998 35.7335 26.7998C36.2315 26.7998 36.7153 26.6333 37.1078 26.3268C37.5004 26.0203 37.7793 25.5914 37.9001 25.1083C38.4742 22.8013 39.6657 20.6943 41.3467 19.0133C43.0277 17.3322 45.1348 16.1407 47.4417 15.5666C47.9249 15.4458 48.3538 15.1669 48.6603 14.7744C48.9668 14.3818 49.1332 13.898 49.1332 13.4C49.1332 12.902 48.9668 12.4182 48.6603 12.0257C48.3538 11.6331 47.9249 11.3542 47.4417 11.2334C45.1348 10.6593 43.0277 9.46778 41.3467 7.78676C39.6657 6.10575 38.4742 3.9987 37.9001 1.69176C37.7793 1.2086 37.5004 0.779688 37.1078 0.473203C36.7153 0.166717 36.2315 0.000244141 35.7335 0.000244141C35.2354 0.000244141 34.7517 0.166717 34.3591 0.473203C33.9666 0.779688 33.6877 1.2086 33.5669 1.69176C32.9928 3.9987 31.8013 6.10575 30.1202 7.78676C28.4392 9.46778 26.3322 10.6593 24.0253 11.2334C23.5421 11.3542 23.1132 11.6331 22.8067 12.0257C22.5002 12.4182 22.3337 12.902 22.3337 13.4C22.3337 13.898 22.5002 14.3818 22.8067 14.7744C23.1132 15.1669 23.5421 15.4458 24.0253 15.5666ZM35.7335 7.86693C37.1373 10.1047 39.0288 11.9961 41.2666 13.4C39.0288 14.8039 37.1373 16.6954 35.7335 18.9331C34.3296 16.6954 32.4381 14.8039 30.2004 13.4C32.4381 11.9961 34.3296 10.1047 35.7335 7.86693Z" fill="white"/>
<path d="M106.831 61.9777L89.9877 78.8207L93.1461 81.9791L109.989 65.1361L106.831 61.9777Z" fill="white"/>
<path d="M114.554 54.2542L110.088 58.7208L113.246 61.8792L117.712 57.4126L114.554 54.2542Z" fill="white"/>
<path d="M131.767 89.3333H111.667C111.074 89.3333 110.506 89.5686 110.087 89.9875C109.669 90.4063 109.433 90.9744 109.433 91.5667V93.6833C104.013 89.7882 97.5929 87.5228 90.9285 87.1536C84.2641 86.7845 77.633 88.327 71.8157 91.5996L67.904 93.8H49.1335C47.1013 93.7992 45.1074 94.3531 43.3669 95.4022C41.6264 96.4512 40.2053 97.9555 39.2569 99.7529C38.3085 101.55 37.8688 103.572 37.9852 105.601C38.1016 107.63 38.7696 109.589 39.9174 111.266L16.0967 99.4314C14.6718 98.726 13.1059 98.352 11.5161 98.3376L10.5561 98.3303C8.18934 98.3122 5.88622 99.096 4.02193 100.554C2.15764 102.012 0.842049 104.059 0.289495 106.36C-0.263059 108.661 -0.0200088 111.082 0.979047 113.228C1.9781 115.373 3.67428 117.117 5.79124 118.176L33.1956 131.878C35.9879 133.27 39.0647 133.997 42.1847 134H131.767C132.359 134 132.927 133.765 133.346 133.346C133.765 132.927 134 132.359 134 131.767V91.5667C134 90.9744 133.765 90.4063 133.346 89.9875C132.927 89.5686 132.359 89.3333 131.767 89.3333ZM35.193 127.883L7.78896 114.181C6.57823 113.575 5.60733 112.579 5.03355 111.353C4.45977 110.127 4.31673 108.743 4.62759 107.426C4.93845 106.108 5.685 104.934 6.74631 104.094C7.80761 103.254 9.12149 102.797 10.4751 102.797H10.5223L11.4818 102.804C12.3937 102.812 13.2919 103.027 14.1093 103.431L39.2063 115.9C39.5152 116.053 39.8553 116.133 40.2002 116.133H69.2334C69.8258 116.133 70.3938 115.898 70.8126 115.479C71.2315 115.06 71.4668 114.492 71.4668 113.9C71.4668 113.308 71.2315 112.74 70.8126 112.321C70.3938 111.902 69.8258 111.667 69.2334 111.667H49.1335C47.3565 111.667 45.6524 110.961 44.3959 109.704C43.1394 108.448 42.4335 106.744 42.4335 104.967C42.4335 103.19 43.1394 101.486 44.3959 100.229C45.6524 98.9726 47.3565 98.2667 49.1335 98.2667H68.4889C68.8724 98.2667 69.2495 98.168 69.5838 97.98L74.0055 95.4926C79.3164 92.5054 85.3988 91.1735 91.4721 91.6678C97.5453 92.1621 103.332 94.46 108.09 98.2667L109.433 99.3401V129.533H42.1845C39.7578 129.53 37.3648 128.966 35.193 127.883V127.883ZM129.533 129.533H113.9V93.8H129.533V129.533Z" fill="white"/>
<path d="M121.717 122.833C122.379 122.833 123.027 122.637 123.578 122.269C124.129 121.901 124.558 121.377 124.812 120.765C125.065 120.153 125.132 119.48 125.002 118.83C124.873 118.18 124.554 117.583 124.085 117.115C123.617 116.646 123.02 116.327 122.37 116.198C121.72 116.068 121.047 116.135 120.435 116.388C119.823 116.642 119.299 117.071 118.931 117.622C118.563 118.173 118.367 118.821 118.367 119.483C118.368 120.372 118.721 121.223 119.349 121.851C119.977 122.479 120.828 122.832 121.717 122.833Z" fill="white"/>
<path d="M46.2459 52.0209L43.0875 55.1793L60.9542 73.0461L64.1126 69.8876L46.2459 52.0209Z" fill="white"/>
</svg>
