<svg width="134" height="134" viewBox="0 0 134 134" fill="none" xmlns="http://www.w3.org/2000/svg">
<path d="M55.863 8.95953C29.9706 8.95953 8.98074 29.9494 8.98074 55.8417C8.98074 81.7341 29.9706 102.724 55.863 102.724C81.7553 102.724 102.745 81.7341 102.745 55.8417C102.717 29.9611 81.7436 8.98772 55.863 8.95953ZM55.863 13.4245C69.653 13.4354 82.5755 20.1563 90.5022 31.4407L84.921 37.0219C83.5628 36.2001 82.0079 35.7603 80.4203 35.7494C75.4885 35.7494 71.4904 39.7475 71.4904 44.6793C71.4982 46.2686 71.9355 47.826 72.7562 49.1867L58.1379 63.805C55.3699 62.1173 51.8911 62.1173 49.1231 63.805L38.9697 53.6517C39.7905 52.291 40.2277 50.7335 40.2356 49.1443C40.2417 44.2222 36.2567 40.2272 31.3346 40.221C27.264 40.216 23.7073 42.9695 22.6927 46.9118H14.4102C18.6371 27.3923 35.8911 13.4538 55.863 13.4245ZM84.8853 44.6793C84.8853 47.1454 82.8864 49.1443 80.4203 49.1443C77.9543 49.1443 75.9553 47.1454 75.9553 44.6793C75.9553 42.2133 77.9543 40.2143 80.4203 40.2143C82.8864 40.2143 84.8853 42.2133 84.8853 44.6793ZM58.0954 71.4692C58.0954 73.9352 56.0965 75.9341 53.6305 75.9341C51.1644 75.9341 49.1655 73.9352 49.1655 71.4692C49.1655 69.0031 51.1644 67.0042 53.6305 67.0042C56.0965 67.0042 58.0954 69.0031 58.0954 71.4692ZM35.7706 49.1443C35.7706 51.6104 33.7717 53.6093 31.3056 53.6093C28.8395 53.6093 26.8406 51.6104 26.8406 49.1443C26.8406 46.6782 28.8395 44.6793 31.3056 44.6793C33.7717 44.6793 35.7706 46.6782 35.7706 49.1443ZM76.4727 92.9306C70.1682 96.4311 63.0744 98.2651 55.863 98.2587C32.4525 98.2746 13.4616 79.3099 13.4457 55.8995C13.4446 54.3887 13.5244 52.8787 13.6846 51.3765H22.6927C23.7076 55.3071 27.2461 58.0586 31.3056 58.074C32.8949 58.0661 34.4523 57.6289 35.813 56.8081L45.9664 66.9615C45.1456 68.3222 44.7083 69.8796 44.7005 71.4689C44.7005 76.4007 48.6986 80.3988 53.6305 80.3988C58.5623 80.3988 62.5604 76.4007 62.5604 71.4689C62.5526 69.8796 62.1153 68.3222 61.2946 66.9615L75.9129 52.3432C77.2736 53.1639 78.8311 53.6012 80.4203 53.609C85.3522 53.609 89.3503 49.6109 89.3503 44.679C89.3424 43.0898 88.9052 41.5323 88.0844 40.1716L92.9513 35.3071C104.313 55.77 96.9354 81.5689 76.4727 92.9306Z" fill="white"/>
<path d="M111.675 22.3544C115.735 22.3391 119.273 19.5878 120.288 15.657H134V11.192H120.288C119.273 7.26115 115.735 4.50989 111.675 4.49454C106.743 4.49454 102.745 8.49265 102.745 13.4245C102.753 15.0137 103.19 16.5712 104.011 17.9319L100.088 21.8544C81.3202 -2.59723 46.2836 -7.20452 21.832 11.5637C-2.6196 30.332 -7.22689 65.3689 11.5413 89.8205C29.2572 112.901 61.7318 118.5 86.1533 102.684L92.8909 109.421L96.0477 112.578L114.019 130.55C118.59 135.12 126 135.12 130.571 130.55C135.142 125.979 135.142 118.569 130.571 113.998L112.599 96.0265L109.443 92.8698L102.705 86.1321C114.665 67.7096 114.665 43.9741 102.705 25.5514L107.17 21.0864C108.53 21.9074 110.087 22.3455 111.675 22.3544ZM111.675 8.95952C114.141 8.95952 116.14 10.9584 116.14 13.4245C116.14 15.8906 114.141 17.8895 111.675 17.8895C109.209 17.8895 107.21 15.8906 107.21 13.4245C107.21 10.9584 109.209 8.95952 111.675 8.95952ZM127.414 117.155C130.273 119.95 130.326 124.534 127.53 127.393C124.735 130.252 120.152 130.304 117.292 127.509C117.253 127.471 117.214 127.432 117.176 127.393L99.2044 109.421L109.443 99.1832L127.414 117.155ZM106.286 96.0265L96.0477 106.265L89.8681 100.085C90.1829 99.8441 90.4776 99.5784 90.7879 99.3306C91.0982 99.0828 91.4577 98.7859 91.7903 98.5068C92.2792 98.096 92.7614 97.6808 93.2347 97.2544C93.4781 97.0311 93.7102 96.8079 93.9491 96.5846C94.8644 95.7274 95.7507 94.8411 96.608 93.9257C96.8313 93.6869 97.0545 93.4547 97.2778 93.2113C97.7042 92.7381 98.1194 92.2558 98.5302 91.7669C98.8101 91.4365 99.0847 91.1025 99.354 90.7645C99.5995 90.4565 99.8652 90.1618 100.106 89.847L106.286 96.0265ZM97.6283 85.6566C96.925 86.6389 96.1995 87.6011 95.4337 88.5276C95.2105 88.7977 94.9716 89.0589 94.7417 89.3246C94.0585 90.1194 93.3531 90.8904 92.6253 91.6374C92.3082 91.9648 91.9859 92.2871 91.6586 92.6041C90.9143 93.3319 90.1436 94.0374 89.3457 94.7205C89.0801 94.9438 88.8189 95.1871 88.5487 95.4126C87.6223 96.1783 86.6601 96.9039 85.6778 97.6071C62.5671 114.118 30.4474 108.767 13.9368 85.6566C-2.57383 62.5459 2.7766 30.4263 25.8873 13.9156C48.998 -2.595 81.1176 2.75516 97.6283 25.8661C110.404 43.7489 110.404 67.7738 97.6283 85.6566Z" fill="white"/>
</svg>
