<svg width="134" height="134" viewBox="0 0 134 134" fill="none" xmlns="http://www.w3.org/2000/svg">
<path d="M128.568 64.1751C128.087 64.1751 127.627 63.9843 127.287 63.6447C126.948 63.3052 126.757 62.8446 126.757 62.3643V57.0949C126.757 56.6146 126.948 56.154 127.287 55.8144C127.627 55.4748 128.087 55.284 128.568 55.284C129.048 55.284 129.508 55.4748 129.848 55.8144C130.188 56.154 130.378 56.6146 130.378 57.0949V62.3643C130.378 62.8446 130.188 63.3052 129.848 63.6447C129.508 63.9843 129.048 64.1751 128.568 64.1751Z" fill="white"/>
<path d="M121.324 103.289H12.6756C10.2752 103.286 7.97397 102.331 6.27663 100.634C4.57929 98.9362 3.62446 96.635 3.62158 94.2346V14.577C3.62446 12.1766 4.57929 9.87534 6.27663 8.178C7.97397 6.48065 10.2752 5.52582 12.6756 5.52295H121.324C123.725 5.52582 126.026 6.48065 127.723 8.178C129.421 9.87534 130.375 12.1766 130.378 14.577V26.3654C130.378 26.8456 130.188 27.3062 129.848 27.6458C129.508 27.9854 129.048 28.1762 128.568 28.1762C128.087 28.1762 127.627 27.9854 127.287 27.6458C126.948 27.3062 126.757 26.8456 126.757 26.3654V14.577C126.757 13.1362 126.184 11.7545 125.166 10.7357C124.147 9.71691 122.765 9.14457 121.324 9.14457H12.6756C11.2349 9.14457 9.85311 9.71691 8.83433 10.7357C7.81555 11.7545 7.2432 13.1362 7.2432 14.577V94.2346C7.2432 95.6754 7.81555 97.0571 8.83433 98.0759C9.85311 99.0947 11.2349 99.667 12.6756 99.667H121.324C122.765 99.667 124.147 99.0947 125.166 98.0759C126.184 97.0571 126.757 95.6754 126.757 94.2346V75.04C126.757 74.5597 126.948 74.0991 127.287 73.7595C127.627 73.42 128.087 73.2292 128.568 73.2292C129.048 73.2292 129.508 73.42 129.848 73.7595C130.188 74.0991 130.378 74.5597 130.378 75.04V94.2346C130.375 96.635 129.421 98.9362 127.723 100.634C126.026 102.331 123.725 103.286 121.324 103.289V103.289Z" fill="white"/>
<path d="M128.568 46.23C128.087 46.23 127.627 46.0392 127.287 45.6996C126.948 45.36 126.757 44.8995 126.757 44.4192V39.0411C126.757 38.5608 126.948 38.1003 127.287 37.7607C127.627 37.4211 128.087 37.2303 128.568 37.2303C129.048 37.2303 129.508 37.4211 129.848 37.7607C130.188 38.1003 130.378 38.5608 130.378 39.0411V44.4192C130.378 44.8995 130.188 45.36 129.848 45.6996C129.508 46.0392 129.048 46.23 128.568 46.23Z" fill="white"/>
<path d="M128.568 83.4041H5.43239C4.95214 83.4041 4.49155 83.2133 4.15196 82.8737C3.81236 82.5342 3.62158 82.0736 3.62158 81.5933C3.62158 81.1131 3.81236 80.6525 4.15196 80.3129C4.49155 79.9733 4.95214 79.7825 5.43239 79.7825H128.568C129.048 79.7825 129.508 79.9733 129.848 80.3129C130.188 80.6525 130.378 81.1131 130.378 81.5933C130.378 82.0736 130.188 82.5342 129.848 82.8737C129.508 83.2133 129.048 83.4041 128.568 83.4041Z" fill="white"/>
<path d="M21.7623 92.8946H19.2399C18.7596 92.8946 18.299 92.7038 17.9594 92.3642C17.6198 92.0246 17.429 91.5641 17.429 91.0838C17.429 90.6035 17.6198 90.143 17.9594 89.8034C18.299 89.4638 18.7596 89.273 19.2399 89.273H21.7623C22.2426 89.273 22.7032 89.4638 23.0428 89.8034C23.3823 90.143 23.5731 90.6035 23.5731 91.0838C23.5731 91.5641 23.3823 92.0246 23.0428 92.3642C22.7032 92.7038 22.2426 92.8946 21.7623 92.8946Z" fill="white"/>
<path d="M99.5946 128.479H34.4054C34.0317 128.479 33.6671 128.364 33.3616 128.149C33.056 127.934 32.8245 127.629 32.6987 127.277C32.573 126.926 32.5592 126.543 32.6592 126.183C32.7592 125.823 32.9681 125.503 33.2573 125.266C41.3028 118.681 45.0421 110.325 43.7872 101.74C43.7446 101.502 43.7503 101.257 43.8042 101.02C43.8581 100.783 43.959 100.56 44.1008 100.363C44.2427 100.166 44.4226 100 44.63 99.8743C44.8374 99.7483 45.068 99.6654 45.308 99.6303C45.5481 99.5952 45.7928 99.6088 46.0275 99.6701C46.2622 99.7314 46.4823 99.8393 46.6745 99.9873C46.8667 100.135 47.0273 100.32 47.1466 100.532C47.2659 100.743 47.3415 100.976 47.369 101.217C48.6148 109.728 45.6777 117.989 39.0393 124.857H94.9933C89.7003 119.088 85.4359 110.264 86.6147 101.244C86.638 101.002 86.7097 100.768 86.8256 100.554C86.9415 100.341 87.0992 100.153 87.2893 100.001C87.4793 99.8499 87.6979 99.7384 87.932 99.6733C88.1661 99.6082 88.4109 99.5908 88.6518 99.6223C88.8927 99.6538 89.1248 99.7334 89.3343 99.8565C89.5438 99.9796 89.7264 100.144 89.8712 100.339C90.016 100.534 90.1201 100.756 90.1772 100.992C90.2343 101.228 90.2434 101.474 90.2037 101.713C88.9615 111.244 94.7742 120.591 100.706 125.243C101.003 125.475 101.219 125.794 101.326 126.155C101.432 126.515 101.424 126.901 101.302 127.256C101.18 127.612 100.949 127.921 100.643 128.14C100.337 128.359 99.9709 128.478 99.5946 128.479Z" fill="white"/>
<path d="M90.0462 63.3874H86.7378C86.2576 63.3874 85.797 63.1967 85.4574 62.8571C85.1178 62.5175 84.927 62.0569 84.927 61.5766C84.927 61.0964 85.1178 60.6358 85.4574 60.2962C85.797 59.9566 86.2576 59.7658 86.7378 59.7658H90.0516C90.0996 59.7658 90.1457 59.7467 90.1797 59.7128C90.2136 59.6788 90.2327 59.6328 90.2327 59.5847V49.5438C90.2326 48.5012 90.6198 47.4957 91.3192 46.7225L94.4229 43.282C94.5208 43.1738 94.575 43.0331 94.575 42.8872C94.575 42.7414 94.5208 42.6007 94.4229 42.4925L91.3246 39.0755C90.6229 38.3008 90.2355 37.2922 90.2381 36.247V27.3269C90.2381 27.2789 90.2191 27.2329 90.1851 27.1989C90.1511 27.1649 90.1051 27.1459 90.0571 27.1459H86.7378C86.2576 27.1459 85.797 26.9551 85.4574 26.6155C85.1178 26.2759 84.927 25.8153 84.927 25.3351C84.927 24.8548 85.1178 24.3942 85.4574 24.0546C85.797 23.715 86.2576 23.5242 86.7378 23.5242H90.0516C91.0602 23.5242 92.0274 23.9249 92.7405 24.638C93.4537 25.3512 93.8543 26.3184 93.8543 27.3269V36.2524C93.8543 36.3983 93.9086 36.539 94.0064 36.6472L97.1065 40.066C97.8097 40.8388 98.1994 41.8461 98.1994 42.8909C98.1994 43.9357 97.8097 44.9429 97.1065 45.7157L94.0028 49.1563C93.9049 49.2637 93.8506 49.4039 93.8507 49.5492V59.5757C93.8519 60.076 93.7544 60.5716 93.5637 61.0341C93.373 61.4966 93.0929 61.917 92.7395 62.2711C92.3861 62.6252 91.9662 62.9061 91.5041 63.0976C91.0419 63.2892 90.5465 63.3877 90.0462 63.3874V63.3874Z" fill="white"/>
<path d="M47.2622 63.3874H43.9484C43.449 63.3874 42.9545 63.2891 42.4932 63.098C42.0318 62.9069 41.6126 62.6268 41.2595 62.2736C40.9064 61.9205 40.6263 61.5013 40.4352 61.04C40.2441 60.5786 40.1457 60.0841 40.1457 59.5847V49.5438C40.1453 49.398 40.0912 49.2574 39.9936 49.149L36.8899 45.7085C36.1867 44.9357 35.7971 43.9284 35.7971 42.8836C35.7971 41.8388 36.1867 40.8316 36.8899 40.0588L39.9882 36.6418C40.0871 36.5334 40.142 36.3919 40.1421 36.2452V27.3269C40.1421 26.8276 40.2404 26.3331 40.4316 25.8717C40.6227 25.4104 40.9028 24.9911 41.2559 24.638C41.609 24.2849 42.0282 24.0048 42.4896 23.8137C42.9509 23.6226 43.4454 23.5242 43.9448 23.5242H47.2622C47.7425 23.5242 48.203 23.715 48.5426 24.0546C48.8822 24.3942 49.073 24.8548 49.073 25.3351C49.073 25.8153 48.8822 26.2759 48.5426 26.6155C48.203 26.9551 47.7425 27.1459 47.2622 27.1459H43.9484C43.9004 27.1459 43.8543 27.1649 43.8204 27.1989C43.7864 27.2329 43.7673 27.2789 43.7673 27.3269V36.2524C43.7704 37.2983 43.383 38.3076 42.6808 39.0827L39.5844 42.4979C39.4865 42.6061 39.4323 42.7468 39.4323 42.8927C39.4323 43.0386 39.4865 43.1792 39.5844 43.2874L42.6881 46.728C43.3875 47.5012 43.7747 48.5066 43.7746 49.5492V59.5757C43.7746 59.6237 43.7937 59.6698 43.8276 59.7037C43.8616 59.7377 43.9076 59.7568 43.9557 59.7568H47.2622C47.7425 59.7568 48.203 59.9475 48.5426 60.2871C48.8822 60.6267 49.073 61.0873 49.073 61.5676C49.073 62.0478 48.8822 62.5084 48.5426 62.848C48.203 63.1876 47.7425 63.3784 47.2622 63.3784V63.3874Z" fill="white"/>
<path d="M82.4934 53.8444H81.6785C81.1982 53.8444 80.7376 53.6537 80.398 53.3141C80.0585 52.9745 79.8677 52.5139 79.8677 52.0336C79.8677 51.5534 80.0585 51.0928 80.398 50.7532C80.7376 50.4136 81.1982 50.2228 81.6785 50.2228H82.4934C82.9736 50.2228 83.4342 50.4136 83.7738 50.7532C84.1134 51.0928 84.3042 51.5534 84.3042 52.0336C84.3042 52.5139 84.1134 52.9745 83.7738 53.3141C83.4342 53.6537 82.9736 53.8444 82.4934 53.8444Z" fill="white"/>
<path d="M72.4324 53.8444H71.6212C71.1409 53.8444 70.6803 53.6537 70.3407 53.3141C70.0012 52.9745 69.8104 52.5139 69.8104 52.0336C69.8104 51.5534 70.0012 51.0928 70.3407 50.7532C70.6803 50.4136 71.1409 50.2228 71.6212 50.2228H72.4324C72.9127 50.2228 73.3733 50.4136 73.7129 50.7532C74.0524 51.0928 74.2432 51.5534 74.2432 52.0336C74.2432 52.5139 74.0524 52.9745 73.7129 53.3141C73.3733 53.6537 72.9127 53.8444 72.4324 53.8444Z" fill="white"/>
<path d="M62.377 53.8444H61.5676C61.0873 53.8444 60.6267 53.6537 60.2871 53.3141C59.9475 52.9745 59.7567 52.5139 59.7567 52.0336C59.7567 51.5534 59.9475 51.0928 60.2871 50.7532C60.6267 50.4136 61.0873 50.2228 61.5676 50.2228H62.3788C62.8591 50.2228 63.3196 50.4136 63.6592 50.7532C63.9988 51.0928 64.1896 51.5534 64.1896 52.0336C64.1896 52.5139 63.9988 52.9745 63.6592 53.3141C63.3196 53.6537 62.8591 53.8444 62.3788 53.8444H62.377Z" fill="white"/>
<path d="M52.3216 53.8444H51.5067C51.0264 53.8444 50.5659 53.6537 50.2263 53.3141C49.8867 52.9745 49.6959 52.5139 49.6959 52.0336C49.6959 51.5534 49.8867 51.0928 50.2263 50.7532C50.5659 50.4136 51.0264 50.2228 51.5067 50.2228H52.3216C52.8018 50.2228 53.2624 50.4136 53.602 50.7532C53.9416 51.0928 54.1324 51.5534 54.1324 52.0336C54.1324 52.5139 53.9416 52.9745 53.602 53.3141C53.2624 53.6537 52.8018 53.8444 52.3216 53.8444Z" fill="white"/>
</svg>
