<svg width="29" height="29" viewBox="0 0 29 29" fill="none" xmlns="http://www.w3.org/2000/svg">
<path d="M19.9487 3H8.64957C5.5294 3 3 5.57338 3 8.74781V20.2434C3 23.4179 5.5294 25.9912 8.64957 25.9912H19.9487C23.0689 25.9912 25.5983 23.4179 25.5983 20.2434V8.74781C25.5983 5.57338 23.0689 3 19.9487 3Z" stroke="#FFBD59" stroke-width="5" stroke-linecap="round" stroke-linejoin="round"/>
<path d="M18.819 13.7715C18.9585 14.7282 18.7979 15.7053 18.36 16.5638C17.9222 17.4223 17.2294 18.1184 16.3803 18.5533C15.5311 18.9881 14.5688 19.1395 13.6302 18.9858C12.6917 18.8322 11.8246 18.3813 11.1524 17.6974C10.4802 17.0135 10.037 16.1314 9.88602 15.1765C9.73499 14.2216 9.88376 13.2426 10.3112 12.3786C10.7386 11.5147 11.4228 10.8099 12.2667 10.3645C13.1105 9.919 14.0709 9.75559 15.0112 9.89746C15.9704 10.0422 16.8585 10.4969 17.5441 11.1945C18.2298 11.8921 18.6768 12.7956 18.819 13.7715Z" stroke="#FFBD59" stroke-width="5" stroke-linecap="round" stroke-linejoin="round"/>
<path d="M20.5129 8.17291H20.5206" stroke="#FFBD59" stroke-width="5" stroke-linecap="round" stroke-linejoin="round"/>
</svg>
