<svg width="24" height="23" viewBox="0 0 24 23" fill="none" xmlns="http://www.w3.org/2000/svg">
<path d="M16.6512 7.26038C18.5438 7.26038 20.359 8.02531 21.6973 9.38689C23.0356 10.7485 23.7875 12.5952 23.7875 14.5208V22.9912H19.03V14.5208C19.03 13.8789 18.7793 13.2633 18.3332 12.8095C17.8871 12.3556 17.2821 12.1006 16.6512 12.1006C16.0203 12.1006 15.4153 12.3556 14.9691 12.8095C14.523 13.2633 14.2724 13.8789 14.2724 14.5208V22.9912H9.51489V14.5208C9.51489 12.5952 10.2668 10.7485 11.6051 9.38689C12.9434 8.02531 14.7585 7.26038 16.6512 7.26038Z" fill="#FFBD59"/>
<path d="M4.75753 8.4704H0V22.9912H4.75753V8.4704Z" fill="#FFBD59"/>
<path d="M2.37876 4.84026C3.69252 4.84026 4.75753 3.75673 4.75753 2.42013C4.75753 1.08353 3.69252 0 2.37876 0C1.06501 0 0 1.08353 0 2.42013C0 3.75673 1.06501 4.84026 2.37876 4.84026Z" fill="#FFBD59"/>
</svg>
